<?xml version="1.0" encoding="utf-8"?>
<!-- Generator: Adobe Illustrator 18.0.0, SVG Export Plug-In . SVG Version: 6.00 Build 0)  -->
<!DOCTYPE svg PUBLIC "-//W3C//DTD SVG 1.1//EN" "http://www.w3.org/Graphics/SVG/1.1/DTD/svg11.dtd">
<svg version="1.1" id="Layer_1" xmlns="http://www.w3.org/2000/svg" xmlns:xlink="http://www.w3.org/1999/xlink" x="0px" y="0px"
	 viewBox="970.5 693.6 213.5 288.1" enable-background="new 970.5 693.6 213.5 288.1" xml:space="preserve">
<g>
	<g>
		<path fill="#FFFFFF" d="M645.2,971.1c-1.4,0-2.7-1.2-2.7-2.7V854.1c0-1.4,1.2-2.7,2.7-2.7H726c1.4,0,2.7,1.2,2.7,2.7
			c0,1.4-1.2,2.7-2.7,2.7h-78.2v111.6C647.8,969.8,646.6,971.1,645.2,971.1z"/>
	</g>
	<g>
		<path fill="#FFFFFF" d="M820,971.1c-1.4,0-2.7-1.2-2.7-2.7V856.7h-35.2c-1.4,0-2.7-1.2-2.7-2.7c0-1.4,1.2-2.7,2.7-2.7H820
			c1.4,0,2.7,1.2,2.7,2.7v114.2C822.6,969.8,821.5,971.1,820,971.1z"/>
	</g>
	<g>
		<path fill="#FFFFFF" d="M666.5,931.3c-1.4,0-2.7-1.2-2.7-2.7V883c0-1.4,1.2-2.7,2.7-2.7s2.7,1.2,2.7,2.7v45.6
			C669.1,930.1,667.9,931.3,666.5,931.3z"/>
	</g>
	<g>
		<path fill="#FFFFFF" d="M666.5,951.3c-1.4,0-2.7-1.2-2.7-2.7v-6.5c0-1.4,1.2-2.7,2.7-2.7s2.7,1.2,2.7,2.7v6.5
			C669.1,950.2,667.9,951.3,666.5,951.3z"/>
	</g>
	<g>
		<path fill="#FFFFFF" d="M747.5,857.4h-9c-1.4,0-2.7-1.2-2.7-2.7s1.2-2.7,2.7-2.7h9c1.4,0,2.7,1.2,2.7,2.7S748.9,857.4,747.5,857.4
			z"/>
	</g>
	<g>
		<path fill="#FFFFFF" d="M770.5,857.4h-9c-1.4,0-2.7-1.2-2.7-2.7s1.2-2.7,2.7-2.7h9c1.4,0,2.7,1.2,2.7,2.7S772,857.4,770.5,857.4z"
			/>
	</g>
	<g>
		<path fill="#FFFFFF" d="M661.3,856.7c-1.4,0-2.7-1.2-2.7-2.7v-29.7c0-1.4,1.2-2.7,2.7-2.7h143.7c1.4,0,2.7,1.2,2.7,2.7v29.1
			c0,1.4-1.2,2.7-2.7,2.7c-1.4,0-2.7-1.2-2.7-2.7V827H663.9v27.1C663.9,855.5,662.7,856.7,661.3,856.7z"/>
	</g>
	<g>
		<path fill="#FFFFFF" d="M733.2,827c-1.4,0-2.7-1.2-2.7-2.7V717.6c0-1.4,1.2-2.7,2.7-2.7c1.4,0,2.7,1.2,2.7,2.7v106.7
			C735.8,825.8,734.6,827,733.2,827z"/>
	</g>
	<g>
		<path fill="#FFFFFF" d="M709.1,827c-1.4,0-2.7-1.2-2.7-2.7v-16c0-61-34.7-66.7-35-66.7c-1.4-0.2-2.5-1.5-2.2-3.1
			c0.2-1.4,1.5-2.5,3.1-2.2c1.7,0.2,39.7,6.4,39.7,72v16C711.8,825.8,710.6,827,709.1,827z"/>
	</g>
	<g>
		<path fill="#FFFFFF" d="M680.6,827c-1.2,0-2.2-0.8-2.6-2c-6.7-24.9-33.4-32.8-33.6-32.9c-1.4-0.4-2.2-1.9-1.9-3.3
			c0.4-1.4,1.9-2.2,3.3-1.9c1.2,0.4,29.9,8.9,37.3,36.6c0.4,1.4-0.5,2.8-1.9,3.3C681,827,680.8,827,680.6,827z"/>
	</g>
	<g>
		<path fill="#FFFFFF" d="M757.1,827c-1.4,0-2.7-1.2-2.7-2.7v-16c0-65.6,38-71.7,39.7-72c1.4-0.2,2.8,0.8,3.1,2.2
			c0.2,1.4-0.8,2.8-2.2,3.1l0,0c-1.4,0.2-35,6-35,66.7v16C759.9,825.8,758.7,827,757.1,827z"/>
	</g>
	<g>
		<path fill="#FFFFFF" d="M785.7,827c-0.2,0-0.5,0-0.7-0.1c-1.4-0.4-2.2-1.9-1.9-3.3c7.6-27.9,36.1-36.2,37.3-36.6
			c1.4-0.4,2.8,0.5,3.3,1.9c0.4,1.4-0.5,3-1.8,3.3c-0.2,0.1-26.9,8-33.6,32.9C787.9,826.1,786.9,827,785.7,827z"/>
	</g>
	<g>
		<path fill="#FFFFFF" d="M658.5,747c-11.8,0-21.4-9.6-21.4-21.4c0-11.8,9.6-21.4,21.4-21.4c11.8,0,21.4,9.6,21.4,21.4
			C679.8,737.4,670.2,747,658.5,747z M658.5,709.5c-8.9,0-16,7.2-16,16c0,8.9,7.2,16,16,16s16-7.2,16-16
			C674.4,716.7,667.2,709.5,658.5,709.5z"/>
	</g>
	<g>
		<path fill="#FFFFFF" d="M733.2,720.3c-11.8,0-21.4-9.6-21.4-21.4c0-11.8,9.6-21.4,21.4-21.4c11.8,0,21.4,9.6,21.4,21.4
			C754.4,710.7,744.9,720.3,733.2,720.3z M733.2,682.9c-8.9,0-16,7.2-16,16s7.2,16,16,16c8.9,0,16-7.2,16-16
			C749.1,690.1,741.9,682.9,733.2,682.9z"/>
	</g>
	<g>
		<path fill="#FFFFFF" d="M626.4,805.6c-11.8,0-21.4-9.6-21.4-21.4c0-11.8,9.6-21.4,21.4-21.4s21.4,9.6,21.4,21.4
			C647.8,796,638.2,805.6,626.4,805.6z M626.4,768.3c-8.9,0-16,7.2-16,16s7.2,16,16,16s16-7.2,16-16S635.2,768.3,626.4,768.3z"/>
	</g>
	<g>
		<path fill="#FFFFFF" d="M807.8,747c-11.8,0-21.4-9.6-21.4-21.4c0-11.8,9.6-21.4,21.4-21.4c11.8,0,21.4,9.6,21.4,21.4
			C829.1,737.4,819.6,747,807.8,747z M807.8,709.5c-8.9,0-16,7.2-16,16c0,8.9,7.2,16,16,16s16-7.2,16-16
			C823.8,716.7,816.6,709.5,807.8,709.5z"/>
	</g>
	<g>
		<path fill="#FFFFFF" d="M839.9,805.6c-11.8,0-21.4-9.6-21.4-21.4c0-11.8,9.6-21.4,21.4-21.4c11.8,0,21.4,9.6,21.4,21.4
			C861.2,796,851.6,805.6,839.9,805.6z M839.9,768.3c-8.9,0-16,7.2-16,16s7.2,16,16,16s16-7.2,16-16S848.6,768.3,839.9,768.3z"/>
	</g>
</g>
<g>
	<g>
		<path fill="#FFFFFF" d="M1181.3,981.7h-208c-1.4,0-2.7-1.2-2.7-2.7v-160c0-1.4,1.2-2.7,2.7-2.7h208c1.4,0,2.7,1.2,2.7,2.7v160
			C1183.9,980.5,1182.7,981.7,1181.3,981.7z M975.8,976.4h202.7V821.7H975.8V976.4z"/>
	</g>
	<g>
		<path fill="#FFFFFF" d="M1093.2,944.4h-32c-1.4,0-2.7-1.2-2.7-2.7v-41.4c-6.8-5.5-10.6-13.8-10.6-22.7c0-16.2,13.2-29.4,29.4-29.4
			s29.4,13.2,29.4,29.4c0,8.9-3.9,17-10.6,22.7v41.4C1095.9,943.1,1094.6,944.4,1093.2,944.4z M1063.8,939h26.7v-40
			c0-0.8,0.4-1.7,1.1-2.1c6.1-4.6,9.6-11.6,9.6-19.2c0-13.2-10.7-24-24-24c-13.2,0-24,10.7-24,24c0,7.7,3.5,14.6,9.6,19.2
			c0.7,0.5,1.1,1.3,1.1,2.1V939z"/>
	</g>
	<g>
		<path fill="#FFFFFF" d="M1154.6,821.7c-1.4,0-2.7-1.2-2.7-2.7v-45.3c0-41.2-33.5-74.7-74.7-74.7c-41.2,0-74.7,33.5-74.7,74.7v45.3
			c0,1.4-1.2,2.7-2.7,2.7s-2.7-1.2-2.7-2.7v-45.3c0-44.1,35.9-80,80-80s80,35.9,80,80v45.3C1157.2,820.5,1156,821.7,1154.6,821.7z"
			/>
	</g>
	<g>
		<path fill="#FFFFFF" d="M1127.9,818.9c-1.4,0-2.7-1.2-2.7-2.7v-33.5c0-30.1-21.6-54.5-48-54.5s-48,24.4-48,54.5v33.5
			c0,1.4-1.2,2.7-2.7,2.7c-1.5,0-2.7-1.2-2.7-2.7v-33.5c0-33,24-59.8,53.3-59.8c29.4,0,53.3,26.8,53.3,59.8v33.5
			C1130.5,817.8,1129.3,818.9,1127.9,818.9z"/>
	</g>
</g>
<g>
	<path fill="#FFFFFF" d="M1325.2,992.3c-0.2,0-0.6,0-0.8-0.1c-1.4-0.5-2.2-1.9-1.8-3.3l58.7-186.7c0.4-1.1,1.4-1.9,2.6-1.9h5.3
		c1.2,0,2.1,0.7,2.5,1.8l64,186.7c0.5,1.4-0.2,3-1.7,3.4c-1.4,0.5-3-0.2-3.4-1.7l-63.4-184.9h-1.4l-58.1,184.8
		C1327.5,991.6,1326.4,992.3,1325.2,992.3z"/>
</g>
<g>
	<circle fill="#FFFFFF" cx="1386.6" cy="788.3" r="20.1"/>
</g>
<g>
	<path fill="#FFFFFF" d="M1399.9,840.3h-26.7c-1.4,0-2.7-1.2-2.7-2.7s1.2-2.7,2.7-2.7h26.7c1.4,0,2.7,1.2,2.7,2.7
		S1401.5,840.3,1399.9,840.3z"/>
</g>
<g>
	<path fill="#FFFFFF" d="M1408,864.3h-42.7c-1.4,0-2.7-1.2-2.7-2.7c0-1.5,1.2-2.7,2.7-2.7h42.7c1.4,0,2.7,1.2,2.7,2.7
		C1410.7,863.1,1409.5,864.3,1408,864.3z"/>
</g>
<g>
	<path fill="#FFFFFF" d="M1332.9,968.2c-0.9,0-1.9-0.5-2.4-1.4c-0.7-1.3-0.2-3,1.1-3.7l90-48.5l-62.8-29.3c-1.3-0.6-1.9-2.2-1.3-3.5
		c0.6-1.3,2.2-1.9,3.5-1.3l67.6,31.5c0.9,0.5,1.5,1.3,1.5,2.4s-0.5,2-1.4,2.5l-94.6,51C1333.7,968.1,1333.3,968.2,1332.9,968.2z"/>
</g>
<g>
	<path fill="#FFFFFF" d="M1445.4,971.1c-0.5,0-0.9-0.1-1.3-0.4l-96.4-53.8c-0.8-0.5-1.4-1.4-1.4-2.5c0-0.9,0.6-1.9,1.5-2.4
		l67.6-31.5c1.3-0.6,3,0,3.5,1.3s0,3-1.3,3.5l-62.9,29.4l91.9,51.2c1.3,0.7,1.8,2.4,1.1,3.7C1447.1,970.5,1446.2,971.1,1445.4,971.1
		z"/>
</g>
<g>
	<path fill="#FFFFFF" d="M1331.8,855.2c-0.6,0-1.1-0.1-1.5-0.5c-19.8-14.5-31.6-37.9-31.6-62.4c0-25.5,12.5-49.3,33.5-63.7
		c1.2-0.8,2.8-0.5,3.7,0.7c0.8,1.2,0.5,2.8-0.7,3.7c-19.6,13.5-31.3,35.6-31.3,59.4c0,22.9,11,44.6,29.5,58.1
		c1.2,0.8,1.4,2.6,0.6,3.8C1333.5,854.8,1332.7,855.2,1331.8,855.2z"/>
</g>
<g>
	<path fill="#FFFFFF" d="M1356,834.4c-0.6,0-1.1-0.1-1.5-0.5c-13.3-9.8-21.2-25.4-21.2-41.8c0-17.1,8.4-33,22.5-42.7
		c1.2-0.8,2.8-0.5,3.7,0.7c0.8,1.2,0.5,2.8-0.7,3.7c-12.6,8.7-20.2,23-20.2,38.4c0,14.8,7.1,28.8,19,37.5c1.2,0.8,1.4,2.6,0.6,3.8
		C1357.7,834,1356.9,834.4,1356,834.4z"/>
</g>
<g>
	<path fill="#FFFFFF" d="M1311.5,883c-0.6,0-1.1-0.1-1.5-0.5c-28.3-20.8-45.2-54.2-45.2-89.2c0-36.5,17.9-70.5,48-91.2
		c1.2-0.8,2.8-0.5,3.7,0.7c0.8,1.2,0.5,2.8-0.7,3.7c-28.6,19.7-45.7,52.2-45.7,86.7c0,33.4,16,65.1,43.1,85c1.2,0.8,1.4,2.6,0.6,3.8
		C1313.2,882.5,1312.4,883,1311.5,883z"/>
</g>
<g>
	<path fill="#FFFFFF" d="M1442.2,855.2c-0.8,0-1.7-0.4-2.1-1.1c-0.8-1.2-0.6-2.8,0.6-3.8c18.4-13.6,29.5-35.3,29.5-58.1
		c0-23.7-11.7-45.9-31.3-59.4c-1.2-0.8-1.5-2.5-0.7-3.7c0.8-1.2,2.5-1.5,3.7-0.7c21,14.5,33.5,38.4,33.5,63.7
		c0,24.5-11.8,47.9-31.6,62.4C1443.4,855.1,1442.8,855.2,1442.2,855.2z"/>
</g>
<g>
	<path fill="#FFFFFF" d="M1418,834.4c-0.8,0-1.7-0.4-2.1-1.1c-0.8-1.2-0.6-2.8,0.6-3.8c11.9-8.7,19-22.8,19-37.5
		c0-15.3-7.6-29.6-20.2-38.4c-1.2-0.8-1.5-2.5-0.7-3.7c0.8-1.2,2.5-1.5,3.7-0.7c14,9.7,22.5,25.7,22.5,42.7
		c0,16.4-7.9,32.1-21.2,41.8C1419.1,834.3,1418.6,834.4,1418,834.4z"/>
</g>
<g>
	<path fill="#FFFFFF" d="M1462.5,883c-0.8,0-1.7-0.4-2.1-1.1c-0.8-1.2-0.6-2.8,0.6-3.8c26.9-19.8,43.1-51.6,43.1-85
		c0-34.7-17.1-67.1-45.7-86.7c-1.2-0.8-1.5-2.5-0.7-3.7c0.8-1.2,2.5-1.5,3.7-0.7c30.1,20.7,48,54.8,48,91.2
		c0,35-16.9,68.4-45.2,89.2C1463.7,882.8,1463.1,883,1462.5,883z"/>
</g>
<g>
	<g>
		<g>
			<path fill="#FFFFFF" d="M172.8,894.3h-36.8c-4.2,0-7.8-3.5-7.8-7.8v-82.3c0-4.2,3.5-7.8,7.8-7.8h36.8c1.4,0,2.7,1.2,2.7,2.7v92.6
				C175.4,893.2,174.2,894.3,172.8,894.3z"/>
		</g>
		<g>
			<path fill="#FFFFFF" d="M392.7,894.3h36.8c4.2,0,7.8-3.5,7.8-7.8v-82.3c0-4.2-3.5-7.8-7.8-7.8h-36.8c-1.4,0-2.7,1.2-2.7,2.7v92.6
				C390,893.2,391.2,894.3,392.7,894.3z"/>
		</g>
		<g>
			<path fill="none" stroke="#FF74FF" stroke-width="0.75" stroke-miterlimit="10" d="M158.2,796.4"/>
		</g>
		<g>
			<path fill="#FFFFFF" d="M313.1,967v-4c8,0,17.5-1.7,28.1-5.1c30.6-9.6,53.8-34.8,60.5-65.8c0.4-1.7,0.5-2.6,0.5-2.6l3.9,0.7
				c0,0-0.1,1.1-0.6,2.8c-7.1,32.5-31.4,58.8-63.3,68.8C331.4,965.3,321.6,967,313.1,967z"/>
		</g>
		<g>
			<path fill="#FFFFFF" d="M313.2,981.7h-47.8c-1.8,0-3.2-1.4-3.2-3.2v-22.2c0-1.8,1.4-3.2,3.2-3.2h47.8c1.8,0,3.2,1.4,3.2,3.2v22.2
				C316.4,980.3,315,981.7,313.2,981.7z"/>
		</g>
		<g>
			<path fill="#FFFFFF" d="M410,805.3h-4c0-3-0.1-5.8-0.2-8.6C401.3,731,347.4,679.7,283,679.7S164.6,731,160.3,796.6
				c-0.2,2.8-0.2,5.8-0.2,8.6h-4c0-3,0.1-6,0.4-9c4.5-67.7,60.2-120.7,126.7-120.7s122.3,53,126.7,120.7
				C410,799.2,410,802.2,410,805.3z"/>
		</g>
	</g>
	<g>
		<g>
			<path fill="#FFFFFF" d="M326.5,913.8c-2.4,0-6-0.4-11-1.2c-5.1-0.8-11.3-2.7-18.5-5.7c-7.2-3-15.5-7.6-24.5-13.5
				c-9.1-5.9-18.9-14.2-29.1-24.5c-8.1-8-15-15.8-20.3-23.1c-5.3-7.3-9.7-14.2-13-20.4c-3.3-6.3-5.8-12-7.4-17.1
				c-1.7-5.1-2.8-9.6-3.4-13.3c-0.6-3.9-0.8-6.8-0.7-9.1c0.1-1.9,0.1-3.1,0.1-3.3c0.2-2.2,0.9-4.1,1.8-6c0.9-2,2.1-3.7,3.5-4.8
				l22.9-22.9c3.7-3.7,9.2-4.2,13-1.4c1.4,1.1,2.6,2.4,3.5,3.9l18.6,35.3c1.3,2.4,1.7,5,1.1,7.8c-0.6,2.7-1.8,5-3.7,6.8l-8.5,8.5
				l-0.1,0.6c0.4,1.7,1.3,4.1,2.8,7.1c1.3,2.6,3.4,5.9,6.1,9.8c2.8,3.8,6.8,8.4,11.9,13.3c5.1,5.2,9.7,9.2,13.6,12.2
				c3.9,2.8,7.2,5,9.8,6.3c3.1,1.5,4.7,2.1,5.5,2.2l1.7,0.4l0.5-0.1l9.7-9.9c2.7-2.4,5.8-3.5,9.2-3.5c2.1,0,3.9,0.4,5.3,1.1h0.1
				l0.8,0.4l33.3,19.7c3.1,1.9,5,4.5,5.5,7.4v0.2c0.5,3.4-0.7,6.6-3.2,9.1l-23,22.8c-1.2,1.3-2.8,2.5-4.8,3.4
				c-1.9,0.9-3.8,1.5-5.7,1.8l-1.2,0.1C328.4,913.8,327.6,913.8,326.5,913.8z M204,782.8c0,0,0,1.2-0.1,3.2c-0.1,1.9,0.1,4.6,0.7,8
				c0.6,3.4,1.7,7.7,3.2,12.5c1.5,4.8,3.9,10.4,7.1,16.3c3.2,6,7.4,12.6,12.6,19.8c5.2,7.1,11.8,14.6,19.7,22.4
				c10,10.1,19.5,18.1,28.2,23.8c8.9,5.8,16.8,10.1,23.6,13s12.6,4.6,17.3,5.3c6.6,1.1,10.4,1.2,12.2,1.1c0.7-0.1,1.2-0.1,1.3-0.1
				c0.9-0.1,2.4-0.6,3.8-1.3c1.3-0.6,2.5-1.4,3.2-2.4l23.1-22.7c1.3-1.3,1.9-2.8,1.7-4.6c-0.4-1.5-1.3-2.8-3.1-3.9L325,853.6
				c-0.7-0.5-1.9-0.7-3.3-0.7c-2.1,0-3.9,0.7-5.4,2.1l-9.7,9.9c-0.6,0.6-1.3,0.9-2.1,1.3c-0.8,0.2-1.4,0.4-2,0.4l-2.7-0.5
				c-1.7-0.4-3.9-1.2-7-2.7c-2.8-1.4-6.4-3.7-10.5-6.7s-8.9-7.3-14.2-12.6c-5.3-5.2-9.6-9.9-12.5-14c-3-4.1-5.2-7.6-6.6-10.5
				c-1.7-3.3-2.8-6.4-3.3-9c0-1.2,0.1-1.9,0.4-2.6c0.4-0.9,0.7-1.7,1.2-2.1l8.5-8.5c1.2-1.2,1.9-2.5,2.2-4.1c0.4-1.5,0.1-3-0.6-4.1
				l-18.5-35.2c-0.5-0.8-1.3-1.7-2.1-2.2c-1.8-1.3-4.1-1.1-6,0.8l-23,22.9c-0.9,0.9-1.8,2-2.4,3.3
				C204.6,780.1,204.2,781.5,204,782.8L204,782.8z"/>
		</g>
		<g>
			<path fill="#FFFFFF" d="M338,829.7c-0.2,0-0.4,0-0.6,0c-1.4-0.4-2.4-1.8-2.1-3.2c2.8-13.6-1.1-27.9-10.3-38.1
				c-9.6-10.7-23.8-15.9-38.1-14c-1.4,0.2-2.8-0.8-3-2.2c-0.2-1.4,0.8-2.8,2.2-3c16-2.1,32,3.8,42.8,15.8
				c10.4,11.6,14.8,27.5,11.6,42.7C340.3,828.7,339.3,829.7,338,829.7z"/>
		</g>
		<g>
			<path fill="#FFFFFF" d="M318.3,830c-0.2,0-0.4,0-0.6,0c-1.4-0.4-2.4-1.8-2.1-3.2c1.8-8.6-0.6-17.7-6.6-24.3
				c-6.1-6.8-15.2-10.1-24.3-9c-1.4,0.2-2.8-0.8-3-2.2c-0.2-1.4,0.8-2.8,2.2-3c10.9-1.4,21.7,2.6,29,10.7c7.1,7.8,9.9,18.6,7.8,28.9
				C320.5,829.2,319.4,830,318.3,830z"/>
		</g>
		<g>
			<path fill="#FFFFFF" d="M358.9,834c-0.2,0-0.4,0-0.6,0c-1.4-0.4-2.4-1.8-2.1-3.2c4.1-19.9-1.5-40.9-15.1-56.1
				c-14.2-15.7-35.2-23.5-56.2-20.8c-1.5,0.2-2.8-0.8-3-2.2c-0.2-1.4,0.8-2.8,2.2-3c22.8-3,45.4,5.4,60.8,22.4
				c14.8,16.4,20.9,39.1,16.4,60.8C361.2,833.1,360.2,834,358.9,834z"/>
		</g>
	</g>
</g>
</svg>
