<?xml version="1.0" encoding="utf-8"?>
<!-- Generator: Adobe Illustrator 18.0.0, SVG Export Plug-In . SVG Version: 6.00 Build 0)  -->
<!DOCTYPE svg PUBLIC "-//W3C//DTD SVG 1.1//EN" "http://www.w3.org/Graphics/SVG/1.1/DTD/svg11.dtd">
<svg version="1.1" id="Layer_1" xmlns="http://www.w3.org/2000/svg" xmlns:xlink="http://www.w3.org/1999/xlink" x="0px" y="0px"
	 viewBox="0 0 2300 1420" enable-background="new 0 0 2300 1420" xml:space="preserve">
<g>
	<defs>
		<rect id="SVGID_1_" x="-85" y="-129" width="2475" height="1650"/>
	</defs>
	<clipPath id="SVGID_2_">
		<use xlink:href="#SVGID_1_"  overflow="visible"/>
	</clipPath>
	<g clip-path="url(#SVGID_2_)">
		<defs>
			<rect id="SVGID_3_" x="-85" y="-129" width="2475" height="1650"/>
		</defs>
		<clipPath id="SVGID_4_">
			<use xlink:href="#SVGID_3_"  overflow="visible"/>
		</clipPath>
		<path clip-path="url(#SVGID_4_)" fill="#E1EBF4" d="M56,621.2c26,46,67.4,84.8,99.2,127.8c92.1,124.4-3.7,270,38.3,404.1
			c36.6,116.8,188.9,148.2,300.2,152.9c187.6,8,374.9-4,555.7-54.9c125.5-35.3,251.1-81.5,383.4-84.3c135.2-2.9,262.4,51.4,393,77.1
			c143.4,28.2,315-2.4,349.6-162.6c21.4-99.2-36.2-190.6-41.6-288.3c-7.1-129.3,121.8-200.3,138.5-321.2
			c10.5-76.2-28.8-144.4-80.1-199.5c-54.1-58.2-126.9-109.6-210.3-114.4c-87.3-5-165.1,40.8-246.7,62.7
			C1506,282,1375.9,77,1165,48.4c-95.1-12.9-212-6.8-298.4,37.5c-80.3,41.2-119.3,132.6-209.4,159.5
			c-95.3,28.4-182.6-28.4-273.2-46.5c-93.8-18.8-182.5,14.6-241.1,87.7C86,357.5,24.5,450.9,31.5,544.5
			C33.7,572.9,42.9,598,56,621.2"/>
		<path clip-path="url(#SVGID_4_)" fill="#67A1D4" d="M629.8,1277.9c-55.9,11.2-127.3-49.8-150.3-116.4
			c-23.7-68.5,19.7-97.2,19.4-192.3c-0.4-108-56.6-124.3-93.7-269.9c-8.4-32.9-56.9-223,3.2-258.6c55.6-32.9,211.8,61.6,239.2,182.6
			c19.5,86.3-40.8,122.5-17.8,223c20.2,88.2,73.4,89.5,93.7,174.6C748.4,1124.5,703.3,1263.2,629.8,1277.9"/>
		<path clip-path="url(#SVGID_4_)" fill="#9ACEFC" d="M625.8,1304.1c15.1-116.4-14.3-296-41.7-426.1
			c-29.6-140.9-63.1-255.8-63.5-257l-4.7,1.4c0.3,1.1,33.9,115.9,63.4,256.6c27.2,129.8,56.6,308.7,41.6,424.4L625.8,1304.1z"/>
		<path clip-path="url(#SVGID_4_)" fill="#99C1E3" d="M565.5,1264.9c73.3-38.2,98.4-169.4,56.8-212.1
			c-28.2-28.8-68.6,1.5-107.5-28.4c-49.8-38.1-13.2-110-52.3-203.1C429.1,742.1,349.2,667,302.6,682.4
			C253.7,698.5,228,818.1,269.7,890c27.1,46.8,68.7,49.1,77.7,92.6c10.5,50.5-40.1,73.5-40.3,122.5
			C306.6,1193,468.4,1315.5,565.5,1264.9"/>
		<path clip-path="url(#SVGID_4_)" fill="#CCE7FE" d="M525.9,1298.5c0.4,0,0.9-0.1,1.3-0.3c1.5-0.7,2.1-2.5,1.4-4
			c-97.2-200.4-125.7-432.8-126-435.1c-0.2-1.6-1.7-2.8-3.3-2.6c-1.6,0.2-2.8,1.7-2.6,3.3c0.3,2.3,28.9,235.8,126.6,437
			C523.7,1297.9,524.8,1298.5,525.9,1298.5"/>
		<path clip-path="url(#SVGID_4_)" fill="#DCE5FE" d="M326.4,919.3c0.3,0,0.6-0.1,0.9-0.3c0.6-0.5,0.7-1.4,0.2-2
			c-30.7-39.4-64.7-98.6-52.5-156.8c7.3-34.7,27.8-52.8,28-53c0.6-0.5,0.7-1.4,0.1-2c-0.5-0.6-1.4-0.7-2-0.1
			c-0.9,0.8-21.5,18.9-28.9,54.5c-6.9,32.7-3.3,86.9,53,159.2C325.5,919.1,326,919.3,326.4,919.3"/>
		<path clip-path="url(#SVGID_4_)" fill="#F0F0F0" d="M572.1,1247.4c0.5,0,0.9-0.2,1.2-0.6c47.2-68.8,63.2-122,47.8-158.1
			c-13.7-32.1-48.4-38-48.8-38.1c-0.8-0.1-1.5,0.4-1.6,1.2c-0.1,0.8,0.4,1.5,1.2,1.6c0.3,0.1,33.5,5.8,46.6,36.4
			c15,35.1-1,87.4-47.5,155.3c-0.4,0.7-0.3,1.5,0.4,2C571.5,1247.3,571.8,1247.4,572.1,1247.4"/>
		<path clip-path="url(#SVGID_4_)" fill="#67A1D4" d="M1650.5,1266.9c55,15.1,130.5-40.6,158.2-105.4c28.5-66.7-12.8-98.4-5.7-193.2
			c8.1-107.7,65.3-120,112.7-262.6c10.7-32.2,72.6-218.4,15.2-258.2c-53.1-36.8-215.7,46.4-251.6,165.2
			c-25.6,84.7,32,125.1,1.9,223.7c-26.4,86.5-79.6,84-105.9,167.4C1543.1,1105.5,1578.3,1247,1650.5,1266.9"/>
		<path clip-path="url(#SVGID_4_)" fill="#9ACEFC" d="M1652.7,1293.3c-6.8-117.2,35.3-294.2,71.9-422
			c39.5-138.4,81.2-250.7,81.6-251.8l4.5,1.7c-0.4,1.1-42,113.2-81.5,251.5c-36.4,127.5-78.4,303.9-71.7,420.4L1652.7,1293.3z"/>
		<path clip-path="url(#SVGID_4_)" fill="#99C1E3" d="M1715.6,1258.5c-70.4-43.3-86.1-176-41.5-215.6c30.1-26.7,68.3,6.4,109.3-20.7
			c52.3-34.5,20.9-108.8,66.6-198.9c38.8-76.7,123.8-145.9,169.3-127.2c47.6,19.5,64.7,140.6,18,209.4c-30.4,44.7-72,44.1-84.1,86.8
			c-14,49.6,34.7,76.2,31.5,125C1979,1205.2,1808.8,1315.9,1715.6,1258.5"/>
		<path clip-path="url(#SVGID_4_)" fill="#CCE7FE" d="M1745,1250.8c-0.5-0.1-0.9-0.3-1.4-0.6c-1.5-1-1.8-2.9-0.7-4.2
			c144.3-176.4,220-398.9,220.7-401.1c0.5-1.6,2.4-2.4,4.1-1.9c1.7,0.5,2.7,2.3,2.2,3.8c-0.8,2.2-76.8,225.7-221.7,402.8
			C1747.5,1250.7,1746.2,1251,1745,1250.8"/>
		<path clip-path="url(#SVGID_4_)" fill="#CCE7FE" d="M1978.7,930.8c-0.3,0-0.6-0.1-0.9-0.4c-0.6-0.5-0.6-1.4-0.1-2
			c33.4-37.1,71.6-93.7,63.5-152.7c-4.8-35.1-24-54.6-24.2-54.8c-0.6-0.6-0.6-1.5,0-2c0.6-0.6,1.5-0.6,2,0
			c0.8,0.8,20.1,20.4,25,56.4c4.5,33.1-2.9,86.9-64.2,155C1979.5,930.7,1979.1,930.8,1978.7,930.8"/>
		<path clip-path="url(#SVGID_4_)" fill="#F0F0F0" d="M1710.3,1240.6c-0.5,0-0.9-0.3-1.1-0.7c-42.1-72-54.4-126.2-36.4-161.1
			c16-31,51-34.5,51.3-34.5c0.8-0.1,1.5,0.5,1.5,1.3c0.1,0.8-0.5,1.5-1.3,1.6c-0.3,0-33.8,3.4-49.1,33
			c-17.5,33.9-5.2,87.2,36.4,158.3c0.4,0.7,0.2,1.6-0.5,2C1710.8,1240.6,1710.5,1240.6,1710.3,1240.6"/>
		<path clip-path="url(#SVGID_4_)" fill="#393839" d="M548.9,595.7v613.4c0,45.1,39.6,81.7,88.6,81.7h1030.1
			c48.9,0,88.6-36.6,88.6-81.7V595.7H548.9z"/>
		<path clip-path="url(#SVGID_4_)" fill="#231F20" d="M1454.9,413.1l-261.8-158.4c-25.5-15.4-55.7-15.4-81.2,0L850.1,413L547.7,596
			l302.4,182.5l302.4,182.5l302.4-182.7L1757.3,596L1454.9,413.1z"/>
		<path clip-path="url(#SVGID_4_)" fill="#9D9FA2" d="M572.6,1264.4c-0.5,0-1-0.2-1.4-0.5c-0.9-0.8-1-2.1-0.2-3l377.2-424.4
			c0.8-0.9,2.1-1,3-0.2c0.9,0.8,1,2.1,0.2,3l-377.2,424.4C573.7,1264.1,573.1,1264.4,572.6,1264.4"/>
		<path clip-path="url(#SVGID_4_)" fill="#9D9FA2" d="M1732.4,1264.4c-0.6,0-1.2-0.2-1.6-0.7l-377.2-424.4c-0.8-0.9-0.7-2.2,0.2-3
			c0.9-0.8,2.2-0.7,3,0.2l377.2,424.4c0.8,0.9,0.7,2.2-0.2,3C1733.4,1264.2,1732.9,1264.4,1732.4,1264.4"/>
		<path clip-path="url(#SVGID_4_)" fill="#031B30" d="M1550.4,974.4c0,0-12.4-14.9,4.5-24.1c16.9-9.2,43.5,0.9,46.8,20.4
			c3.4,19.5,20.2,7.9,27.5,3.7s27.8-10.1,33,12.2c2.1,8.8-0.5,20.1,3.3,28.3c5.3,11.3,22.5,8.4,31.8,12.7
			c12.2,5.6,18.6,16.5,12.2,29.2c-9.8,19.5-29,32-18.6,49c10.4,17-31.5,55.2-45.8,19.7c-14.4-35.4-36.6-29.4-54.7-31.7
			c-18-2.2-27.2-17.8-22.3-33.7c4.9-15.9-1.5-25.3-8.2-32.1S1530.5,992.4,1550.4,974.4"/>
	</g>
	<g clip-path="url(#SVGID_2_)">
		<defs>
			<path id="SVGID_5_" d="M1495.4,1176.8c-2.4,1.6-3.7,4.4-3.4,7.3c1.8,14.5,9.3,61.3,34.1,107c1.3,2.4,1.7,5.2,1.1,7.9l-4.3,20
				l-8,7.5h20.5l13.7-37l-5.9-1.9c-4.5-1.4-7.6-5.6-7.7-10.4l-0.7-39.7c0.6-17.7-10.8-29.9-10.8-29.9l32.8-1.6l-32.7-41.5
				C1524.2,1164.5,1510.7,1166.6,1495.4,1176.8"/>
		</defs>
		<clipPath id="SVGID_6_">
			<use xlink:href="#SVGID_5_"  overflow="visible"/>
		</clipPath>
		
			<linearGradient id="SVGID_7_" gradientUnits="userSpaceOnUse" x1="-85" y1="1521.0455" x2="-84" y2="1521.0455" gradientTransform="matrix(-32.6667 -148 -148 32.6667 223880.2813 -60940.707)">
			<stop  offset="0" style="stop-color:#FF928E"/>
			<stop  offset="1" style="stop-color:#FEB3B1"/>
		</linearGradient>
		<polygon clip-path="url(#SVGID_6_)" fill="url(#SVGID_7_)" points="1494.7,1340.2 1457.6,1172 1553.9,1150.7 1591,1318.9 		"/>
	</g>
	<g clip-path="url(#SVGID_2_)">
		<defs>
			<rect id="SVGID_8_" x="-85" y="-129" width="2475" height="1650"/>
		</defs>
		<clipPath id="SVGID_9_">
			<use xlink:href="#SVGID_8_"  overflow="visible"/>
		</clipPath>
		<path clip-path="url(#SVGID_9_)" fill="#015CAB" d="M1506.9,1330c-1.9,2.4,20.1,5.7,31.3,0.3c0,0,15.4-26.8,15.4-40.6
			c0,0-1.2-2.8-10.3-2.2c0,0-5.2,31.8-10.6,35.3c-5.5,3.6-15.3,0.4-15.3,0.4S1509.7,1326.4,1506.9,1330"/>
	</g>
	<g clip-path="url(#SVGID_2_)">
		<defs>
			<path id="SVGID_10_" d="M1499.9,1181.7c-19.2,19.1-50.6,126.1-50.6,126.1l-33.5,20.1c16.2,3.8,32.7,2.9,49.4-3l-5.4-17.2
				c0,0,51.6-63.8,55.2-78.5c3.6-14.7,2.4-25.4,2.4-25.4s35.2,3.9,35.3,4.2l-17.6-38.6L1499.9,1181.7z"/>
		</defs>
		<clipPath id="SVGID_11_">
			<use xlink:href="#SVGID_10_"  overflow="visible"/>
		</clipPath>
		
			<linearGradient id="SVGID_12_" gradientUnits="userSpaceOnUse" x1="-85" y1="1520.9673" x2="-84" y2="1520.9673" gradientTransform="matrix(-76.6669 186.6669 186.6669 76.6669 -288830.7188 -99773.0156)">
			<stop  offset="0" style="stop-color:#FF928E"/>
			<stop  offset="1" style="stop-color:#FEB3B1"/>
		</linearGradient>
		<polygon clip-path="url(#SVGID_11_)" fill="url(#SVGID_12_)" points="1609.7,1193 1533,1379.9 1358.8,1308.3 1435.6,1121.4 		"/>
	</g>
	<g clip-path="url(#SVGID_2_)">
		<defs>
			<rect id="SVGID_13_" x="-85" y="-129" width="2475" height="1650"/>
		</defs>
		<clipPath id="SVGID_14_">
			<use xlink:href="#SVGID_13_"  overflow="visible"/>
		</clipPath>
		<path clip-path="url(#SVGID_14_)" fill="#031B30" d="M1631.6,1145.9c0,0,20.3,30.1,21.9,43.9c1.7,13.7-5.5,19.3-26.8,20.2
			c-21.3,0.9-78,0.9-78,0.9l-48.4-41.4c0,0,35.3-12.6,44.5-16.2C1553.9,1149.8,1631.6,1145.9,1631.6,1145.9"/>
		<path clip-path="url(#SVGID_14_)" fill="#015CAB" d="M1463.1,1319.2c0,0,5.8,5.6,1.9,11.9c0,0-46.2,8.2-58.7,4.5
			c0,0,2.6-5.9,16.7-12.7l-1,0.8c-1.3,1-0.5,3.1,1.1,3C1432.4,1326.2,1451.7,1324.5,1463.1,1319.2"/>
		<path clip-path="url(#SVGID_14_)" fill="#015CAB" d="M1576.8,1141.9c0,0-23.6-22.5-35.2-37.3c-6.3-8-8.2-18.6-5.3-28.4
			c5.3-17.9,14.7-36.4,15.6-39.2c1.3-4.4,27.8-4.2,27.8-4.2s52,33.8,72.5,91l-23,7.1c0,0-13.6-22.8-27-37.3c0,0,23.2,30.7,24.1,43.3
			L1576.8,1141.9z"/>
	</g>
	<g clip-path="url(#SVGID_2_)">
		<defs>
			<path id="SVGID_15_" d="M1548.7,1012.3c0.3,0.9,7.2,23.8,7.7,24.3c0.5,0.5,15.1,1.3,22-3.4l-11.7-24.4L1548.7,1012.3z"/>
		</defs>
		<clipPath id="SVGID_16_">
			<use xlink:href="#SVGID_15_"  overflow="visible"/>
		</clipPath>
		
			<linearGradient id="SVGID_17_" gradientUnits="userSpaceOnUse" x1="-85" y1="1521.0094" x2="-84" y2="1521.0094" gradientTransform="matrix(32.6667 80.0001 80.0001 -32.6667 -117352.9844 57479.6523)">
			<stop  offset="0" style="stop-color:#FF928E"/>
			<stop  offset="1" style="stop-color:#FEB3B1"/>
		</linearGradient>
		<polygon clip-path="url(#SVGID_16_)" fill="url(#SVGID_17_)" points="1574.1,998.3 1588.6,1033.7 1552.9,1048.2 1538.5,1012.9 		
			"/>
	</g>
	<g clip-path="url(#SVGID_2_)">
		<defs>
			<path id="SVGID_18_" d="M1560,964.2c0,0-12.5,5.3-20.9,23.3c-8.5,18-2.1,26.3,5.8,27.5s19.8,1,32.4-10.7
				c11.5-10.7,1-40.8-13.4-40.8C1562.6,963.5,1561.3,963.7,1560,964.2"/>
		</defs>
		<clipPath id="SVGID_19_">
			<use xlink:href="#SVGID_18_"  overflow="visible"/>
		</clipPath>
		
			<linearGradient id="SVGID_20_" gradientUnits="userSpaceOnUse" x1="-85" y1="1520.9902" x2="-84" y2="1520.9902" gradientTransform="matrix(51.3334 -5.3333 -5.3333 -51.3334 10120.3184 79020.8359)">
			<stop  offset="0" style="stop-color:#FF928E"/>
			<stop  offset="1" style="stop-color:#FEB3B1"/>
		</linearGradient>
		<polygon clip-path="url(#SVGID_19_)" fill="url(#SVGID_20_)" points="1525.2,964 1588.2,957.5 1594.2,1015.5 1531.2,1022.1 		"/>
	</g>
	<g clip-path="url(#SVGID_2_)">
		<defs>
			<rect id="SVGID_21_" x="-85" y="-129" width="2475" height="1650"/>
		</defs>
		<clipPath id="SVGID_22_">
			<use xlink:href="#SVGID_21_"  overflow="visible"/>
		</clipPath>
		<path clip-path="url(#SVGID_22_)" fill="#031B30" d="M1568.8,994.7c0,0,9.4-26.3-14-26.7l-5.5,3.8c0,0-8.6-14.6,5.5-21.6
			c14.1-7,35.1-0.8,41,18.2c6,19,2.5,31.2-7.5,40.3c-10,9.1-14.1-1.2-14.1-1.2s5.4-8.5,3.2-13c-2.2-4.5-7.3,0.9-7.3,0.9
			L1568.8,994.7z"/>
	</g>
	<g clip-path="url(#SVGID_2_)">
		<defs>
			<path id="SVGID_23_" d="M1566.3,998.9l1.4,6.7c4.5-2.3,16-9.4,9.7-14.8c-1.1-0.9-2.1-1.3-3-1.3
				C1569.6,989.4,1566.3,998.9,1566.3,998.9"/>
		</defs>
		<clipPath id="SVGID_24_">
			<use xlink:href="#SVGID_23_"  overflow="visible"/>
		</clipPath>
		
			<linearGradient id="SVGID_25_" gradientUnits="userSpaceOnUse" x1="-85" y1="1520.9918" x2="-84" y2="1520.9918" gradientTransform="matrix(51.3333 -5.3333 -5.3333 -51.3333 10121.248 79029.8516)">
			<stop  offset="0" style="stop-color:#FF928E"/>
			<stop  offset="1" style="stop-color:#FEB3B1"/>
		</linearGradient>
		<polygon clip-path="url(#SVGID_24_)" fill="url(#SVGID_25_)" points="1564.7,989.6 1583.6,987.7 1585.4,1005.4 1566.5,1007.4 		
			"/>
	</g>
	<g clip-path="url(#SVGID_2_)">
		<defs>
			<path id="SVGID_26_" d="M1621.2,1133.3l-13.7,3.7c-13.7,3.7-37.5,0-37.5,0l-24-10.1l-17.3,16.7l17.2,6.9c0,0,96.1,3,100.2,1.2
				c2-0.9,5.1-3,7.8-4.9c3-2.1,4.2-6,3-9.5l-4.8-13.7L1621.2,1133.3z"/>
		</defs>
		<clipPath id="SVGID_27_">
			<use xlink:href="#SVGID_26_"  overflow="visible"/>
		</clipPath>
		
			<linearGradient id="SVGID_28_" gradientUnits="userSpaceOnUse" x1="-85" y1="1521.0126" x2="-84" y2="1521.0126" gradientTransform="matrix(-157.3337 -14.0001 -14.0001 157.3337 9649.7363 -239345.8438)">
			<stop  offset="0" style="stop-color:#FF928E"/>
			<stop  offset="1" style="stop-color:#FEB3B1"/>
		</linearGradient>
		<polygon clip-path="url(#SVGID_27_)" fill="url(#SVGID_28_)" points="1657.2,1164.9 1526.1,1153.3 1529.8,1112.3 1660.8,1123.9 		
			"/>
	</g>
	<g clip-path="url(#SVGID_2_)">
		<defs>
			<rect id="SVGID_29_" x="-85" y="-129" width="2475" height="1650"/>
		</defs>
		<clipPath id="SVGID_30_">
			<use xlink:href="#SVGID_29_"  overflow="visible"/>
		</clipPath>
		<g clip-path="url(#SVGID_30_)">
			<g>
				<defs>
					<rect id="SVGID_31_" x="1598.4" y="978.6" width="56.4" height="17.7"/>
				</defs>
				<clipPath id="SVGID_32_">
					<use xlink:href="#SVGID_31_"  overflow="visible"/>
				</clipPath>
				<path clip-path="url(#SVGID_32_)" fill="#BDD0FB" d="M1654.7,996.3l-0.8-0.1c0.7-6.6-0.4-10.9-3.3-13.3c-5.9-4.8-18-1-28.7,2.3
					c-5.4,1.7-10.5,3.3-14.1,3.5c-2.7,0.1-5-0.6-6.5-2.2c-2.9-2.9-2.7-7.6-2.7-7.8l0.8,0c0,0-0.2,4.5,2.5,7.2
					c1.4,1.4,3.4,2.1,5.9,1.9c3.5-0.2,8.6-1.8,13.9-3.4c10.9-3.4,23.3-7.2,29.5-2.1C1654.2,984.8,1655.4,989.4,1654.7,996.3"/>
			</g>
		</g>
		<g clip-path="url(#SVGID_30_)">
			<g>
				<defs>
					<rect id="SVGID_33_" x="1676.1" y="1030.5" width="26.9" height="64.5"/>
				</defs>
				<clipPath id="SVGID_34_">
					<use xlink:href="#SVGID_33_"  overflow="visible"/>
				</clipPath>
				<path clip-path="url(#SVGID_34_)" fill="#BDD0FB" d="M1680.2,1095c-1.9-7.9,3.3-14.6,9.3-22.4c4.3-5.6,9.3-11.9,11.9-19.5
					c1.3-3.6,1-7-0.8-9.9c-5.6-9.2-24.3-11.8-24.4-11.9l0.1-0.8c0.8,0.1,19.2,2.8,25,12.2c1.9,3.2,2.2,6.7,0.9,10.6
					c-2.7,7.7-7.6,14.1-12,19.7c-5.9,7.6-11,14.1-9.2,21.7L1680.2,1095z"/>
			</g>
		</g>
		<rect x="1587.1" y="1230.3" clip-path="url(#SVGID_30_)" fill="#015CAB" width="9.1" height="98.7"/>
		<path clip-path="url(#SVGID_30_)" fill="#015CAB" d="M1631.6,1330.9h-80c0-3.3,2.7-5.9,5.9-5.9h68.1
			C1628.9,1325,1631.6,1327.6,1631.6,1330.9"/>
		<path clip-path="url(#SVGID_30_)" fill="#015CAB" d="M1643.5,1226.8c0,5.4-4.4,9.8-9.8,9.8h-80.9c-5.4,0-9.8-4.4-9.8-9.8v-8.9
			c0-5.4,4.4-9.8,9.8-9.8h80.9c5.4,0,9.8,4.4,9.8,9.8V1226.8z"/>
		<path clip-path="url(#SVGID_30_)" fill="#013A6B" d="M1594.3,1151.5c-0.1,0-0.2,0-0.2,0l-100.5-0.1c-2.5,0-4.5-2-4.5-4.5
			c0-2.5,2-4.5,4.5-4.5l100.5,0.1c2.5,0,4.5,2,4.5,4.5C1598.6,1149.4,1596.7,1151.3,1594.3,1151.5"/>
		<path clip-path="url(#SVGID_30_)" fill="#013A6B" d="M1403.2,1060.2h83.7c6.2,0,11.8,3.6,14.4,9.2l38.7,82.1h-104
			c-4,0-7.6-2.4-9-6.1l-30-75.9C1395.3,1064.9,1398.5,1060.2,1403.2,1060.2"/>
	</g>
	<g clip-path="url(#SVGID_2_)">
		<defs>
			<path id="SVGID_35_" d="M1311.3,1150.5c-1.6,0-3.1,0.8-4,2.1c-0.9,1.3-1,2.9-0.3,4.3l4.5,9.2c1,2.1,3.3,3.5,5.8,3.5h410.6
				c2.3,0,4.3-1.5,4.7-3.7l2.2-10.8c0.2-1.1-0.1-2.3-0.9-3.2c-0.8-0.9-2-1.4-3.2-1.4H1311.3z"/>
		</defs>
		<clipPath id="SVGID_36_">
			<use xlink:href="#SVGID_35_"  overflow="visible"/>
		</clipPath>
		
			<linearGradient id="SVGID_37_" gradientUnits="userSpaceOnUse" x1="-85.0006" y1="1521" x2="-83.9996" y2="1521" gradientTransform="matrix(428.4209 0 0 -428.4209 37722.2773 652788.1875)">
			<stop  offset="0" style="stop-color:#DAE3FE"/>
			<stop  offset="1" style="stop-color:#E9EFFD"/>
		</linearGradient>
		<rect x="1306.3" y="1150.5" clip-path="url(#SVGID_36_)" fill="url(#SVGID_37_)" width="428.8" height="19"/>
	</g>
	<g clip-path="url(#SVGID_2_)">
		<defs>
			<path id="SVGID_38_" d="M1408.6,1160.6l-77.2,183.6c-0.8,1.9,0.1,4.1,1.9,4.9c0.5,0.2,1,0.3,1.5,0.3c1.4,0,2.8-0.9,3.4-2.3
				l77.2-183.6c0.8-1.9-0.1-4.1-1.9-4.9c-0.5-0.2-1-0.3-1.5-0.3C1410.6,1158.3,1409.2,1159.2,1408.6,1160.6"/>
		</defs>
		<clipPath id="SVGID_39_">
			<use xlink:href="#SVGID_38_"  overflow="visible"/>
		</clipPath>
		
			<linearGradient id="SVGID_40_" gradientUnits="userSpaceOnUse" x1="-85" y1="1521" x2="-84" y2="1521" gradientTransform="matrix(84.5728 0 0 -84.5728 8519.7939 129889.1172)">
			<stop  offset="0" style="stop-color:#DAE3FE"/>
			<stop  offset="1" style="stop-color:#E9EFFD"/>
		</linearGradient>
		<rect x="1330.6" y="1158.3" clip-path="url(#SVGID_39_)" fill="url(#SVGID_40_)" width="85.6" height="191.2"/>
	</g>
	<g clip-path="url(#SVGID_2_)">
		<defs>
			<path id="SVGID_41_" d="M1343.1,1158.7c-1.9,0.8-2.7,3-1.9,4.9l77.2,183.6c0.6,1.4,2,2.3,3.4,2.3c0.5,0,1-0.1,1.5-0.3
				c1.9-0.8,2.7-3,1.9-4.9l-77.2-183.6c-0.6-1.4-2-2.3-3.4-2.3C1344.1,1158.3,1343.6,1158.4,1343.1,1158.7"/>
		</defs>
		<clipPath id="SVGID_42_">
			<use xlink:href="#SVGID_41_"  overflow="visible"/>
		</clipPath>
		
			<linearGradient id="SVGID_43_" gradientUnits="userSpaceOnUse" x1="-85" y1="1521" x2="-84" y2="1521" gradientTransform="matrix(84.5731 0 0 -84.5731 8529.5859 129889.5781)">
			<stop  offset="0" style="stop-color:#DAE3FE"/>
			<stop  offset="1" style="stop-color:#E9EFFD"/>
		</linearGradient>
		<rect x="1340.4" y="1158.3" clip-path="url(#SVGID_42_)" fill="url(#SVGID_43_)" width="85.6" height="191.2"/>
	</g>
	<g clip-path="url(#SVGID_2_)">
		<defs>
			<path id="SVGID_44_" d="M1712.7,1160.6l-77.2,183.6c-0.8,1.9,0.1,4.1,1.9,4.9c0.5,0.2,1,0.3,1.5,0.3c1.4,0,2.8-0.9,3.4-2.3
				l77.2-183.6c0.8-1.9-0.1-4.1-1.9-4.9c-0.5-0.2-1-0.3-1.5-0.3C1714.6,1158.3,1713.3,1159.2,1712.7,1160.6"/>
		</defs>
		<clipPath id="SVGID_45_">
			<use xlink:href="#SVGID_44_"  overflow="visible"/>
		</clipPath>
		
			<linearGradient id="SVGID_46_" gradientUnits="userSpaceOnUse" x1="-85" y1="1521" x2="-84" y2="1521" gradientTransform="matrix(84.5729 0 0 -84.5729 8823.8418 129889.3125)">
			<stop  offset="0" style="stop-color:#DAE3FE"/>
			<stop  offset="1" style="stop-color:#E9EFFD"/>
		</linearGradient>
		<rect x="1634.6" y="1158.3" clip-path="url(#SVGID_45_)" fill="url(#SVGID_46_)" width="85.6" height="191.2"/>
	</g>
	<g clip-path="url(#SVGID_2_)">
		<defs>
			<path id="SVGID_47_" d="M1647.1,1158.7c-1.9,0.8-2.7,3-1.9,4.9l77.2,183.6c0.6,1.4,2,2.3,3.4,2.3c0.5,0,1-0.1,1.5-0.3
				c1.9-0.8,2.7-3,1.9-4.9l-77.2-183.6c-0.6-1.4-2-2.3-3.4-2.3C1648.1,1158.3,1647.6,1158.4,1647.1,1158.7"/>
		</defs>
		<clipPath id="SVGID_48_">
			<use xlink:href="#SVGID_47_"  overflow="visible"/>
		</clipPath>
		
			<linearGradient id="SVGID_49_" gradientUnits="userSpaceOnUse" x1="-85" y1="1521" x2="-84" y2="1521" gradientTransform="matrix(84.5729 0 0 -84.5729 8833.6045 129889.2578)">
			<stop  offset="0" style="stop-color:#DAE3FE"/>
			<stop  offset="1" style="stop-color:#E9EFFD"/>
		</linearGradient>
		<rect x="1644.4" y="1158.3" clip-path="url(#SVGID_48_)" fill="url(#SVGID_49_)" width="85.6" height="191.2"/>
	</g>
	<g clip-path="url(#SVGID_2_)">
		<defs>
			<polygon id="SVGID_50_" points="642.5,158.4 647.6,656.3 1152.4,963.7 1675.9,645.8 1675.9,158.4 			"/>
		</defs>
		<clipPath id="SVGID_51_">
			<use xlink:href="#SVGID_50_"  overflow="visible"/>
		</clipPath>
		<path clip-path="url(#SVGID_51_)" fill="#CCDEEE" d="M1528,297.7H683c-14.9,0-27.2,12.9-27.2,27.8v685.7h993.4V420.8L1528,297.7z"
			/>
		<path clip-path="url(#SVGID_51_)" fill="#9EC3E4" d="M1648.7,422l-110.9,1c-2.9,0-5.2-1.1-7.3-3.2c-2.1-2.1-2.3-4.9-2.3-7.8V299.7
			L1648.7,422z"/>
		<path clip-path="url(#SVGID_51_)" fill="#015CAB" d="M1371.7,621.4c0,25.8-4.1,49.4-12.4,70.8c-8.2,21.4-19.9,38.2-34.9,50.3
			c-15,12.2-32.5,18.3-52.4,18.3c-13.2,0-25-3.2-35.2-9.5c-10.2-6.4-17.5-14.7-22-25.1h-4.3c-19.3,23.1-44,34.6-73.8,34.6
			c-31.7,0-56.7-9.5-74.9-28.6c-18.3-19.1-27.4-45.2-27.4-78.3c0-37.8,12-68.2,36-91.3c24-23.1,55.3-34.6,94-34.6
			c15.4,0,32.4,1.5,50.9,4.4c18.5,3,33.8,6.5,45.8,10.6l-6.2,131.3c0,24.9,6.8,37.3,20.4,37.3c11.5,0,20.6-8.4,27.4-25.1
			c6.8-16.7,10.2-38.6,10.2-65.7c0-28.8-6-54.3-18-76.4c-12-22.1-28.9-39-50.6-50.6c-21.8-11.6-46.6-17.5-74.5-17.5
			c-36.2,0-67.6,7.4-94.3,22.3c-26.7,14.9-47.1,36.3-61.4,64.3c-14.2,28-21.3,60.4-21.3,97.1c0,49.4,13.2,87.3,39.6,113.7
			s64.7,39.6,114.8,39.6c19,0,39.8-2.1,62.6-6.3c22.7-4.2,45.1-10.3,67.1-18.4v51.6c-38.3,16.3-80.8,24.4-127.6,24.4
			c-68,0-121.1-17.9-159.1-53.7c-38-35.8-57.1-85.6-57.1-149.3c0-44.2,9.7-84.4,29.1-120.4c19.4-36.1,47.1-64.4,83-84.9
			c35.9-20.5,77.2-30.7,123.9-30.7c39.4,0,74.6,8.1,105.5,24.2c31,16.1,54.9,39,71.7,68.7C1363.2,548.3,1371.7,582.6,1371.7,621.4
			 M1096.7,655c0,37.8,15.4,56.7,46.2,56.7c16.1,0,28.4-5.7,36.8-17.1c8.4-11.4,13.5-29.9,15.3-55.5l3.5-59.3c-9.1-2-19.4-3-30.9-3
			c-22.4,0-39.8,7-52.2,20.9C1102.9,611.8,1096.7,630.8,1096.7,655"/>
	</g>
	<g clip-path="url(#SVGID_2_)">
		<defs>
			<rect id="SVGID_52_" x="-85" y="-129" width="2475" height="1650"/>
		</defs>
		<clipPath id="SVGID_53_">
			<use xlink:href="#SVGID_52_"  overflow="visible"/>
		</clipPath>
		<path clip-path="url(#SVGID_53_)" fill="#015CAB" d="M1711.9,294.5c-1.2-104.2,82.6-189.9,186.7-191.1
			c38.4-0.4,75.5,10.6,107.3,31.9l10.7-10.9c1.4-1.4,3.4-2,5.3-1.5c1.9,0.5,3.4,2,3.9,3.9l18.8,68.3c0.5,1.9,0,3.9-1.4,5.3
			c-1.4,1.4-3.4,2-5.3,1.5l-68.5-17.9c-1.9-0.5-3.4-2-3.9-3.9c-0.5-1.9,0-4,1.4-5.4l12.1-12.3c-24.1-14.6-51.7-22.1-79.9-21.8
			c-83.5,1-150.7,69.7-149.7,153.1c1,83.4,69.7,150.5,153.2,149.5c39.8-0.5,77.2-16.3,105.4-44.7c28.1-28.3,43.9-65.8,44.3-105.5
			c0-2.9,2.3-6.1,5.5-6.2l26.4-0.3c1.7,0,2.9,1.2,3.8,2.1l0.2,0.2c1.2,1.2,1.6,3.4,1.6,4.6c-0.4,49.6-19.9,96.4-55,131.8
			c-35.2,35.4-81.9,55.2-131.7,55.7C1798.8,482.4,1713.1,398.6,1711.9,294.5 M2040.8,196.5c0-0.1,0-0.2-0.1-0.4l-18.8-68.3
			c-0.1-0.5-0.5-0.9-1-1c-0.5-0.1-1,0-1.4,0.4l-13.1,13.3l-1.4-1c-31.4-21.5-68.2-32.6-106.3-32.1c-101.9,1.2-183.9,85-182.7,187
			c1.2,101.9,85,183.9,187,182.7c48.7-0.6,94.4-19.9,128.8-54.5c34.4-34.6,53.5-80.3,53.8-128.9v0c0-0.6-0.3-1.5-0.5-1.7l-0.2-0.2
			c-0.2-0.3-0.7-0.7-0.9-0.8l-26.3,0.3c-0.6,0-1.4,1.1-1.4,2.1c-0.4,40.8-16.6,79.3-45.5,108.3c-29,29.1-67.4,45.4-108.3,45.9
			c-85.8,1-156.4-67.9-157.3-153.6c-1-85.7,68-156.3,153.8-157.3c29.9-0.3,59.1,7.9,84.3,23.7l2.2,1.4l-15.7,15.9
			c-0.4,0.4-0.5,0.9-0.4,1.4c0.1,0.5,0.5,0.9,1,1l68.5,17.9c0.5,0.1,1,0,1.4-0.4C2040.6,197.3,2040.8,196.9,2040.8,196.5"/>
		<path clip-path="url(#SVGID_53_)" fill="#015CAB" d="M1843.1,329.5h-54.4V318l19.5-19.8c5.8-5.9,9.6-10,11.3-12.3
			c1.8-2.3,3.1-4.4,3.8-6.4c0.8-2,1.2-4,1.2-6.1c0-3.1-0.9-5.5-2.6-7c-1.7-1.5-4-2.3-6.9-2.3c-3,0-5.9,0.7-8.8,2.1
			c-2.8,1.4-5.8,3.4-8.9,5.9l-8.9-10.6c3.8-3.3,7-5.6,9.5-6.9c2.5-1.3,5.3-2.4,8.3-3.1c3-0.7,6.3-1.1,10-1.1c4.9,0,9.2,0.9,12.9,2.7
			c3.7,1.8,6.6,4.3,8.7,7.5c2.1,3.2,3.1,6.9,3.1,11c0,3.6-0.6,7-1.9,10.1c-1.3,3.1-3.2,6.4-5.9,9.7c-2.6,3.3-7.3,8-14,14.1l-10,9.4
			v0.7h33.9V329.5z"/>
		<path clip-path="url(#SVGID_53_)" fill="#015CAB" d="M1907.1,313.3h-9.4v16.1h-16.1v-16.1h-33.2v-11.5l34.1-50.3h15.2v48.9h9.4
			V313.3z M1881.6,300.5v-13.2c0-2.2,0.1-5.4,0.3-9.6c0.2-4.2,0.3-6.6,0.4-7.3h-0.4c-1.3,2.9-2.9,5.8-4.7,8.5l-14.3,21.6H1881.6z"/>
		<polygon clip-path="url(#SVGID_53_)" fill="#015CAB" points="1953.3,251.6 1924.3,329.5 1909.5,329.5 1938.6,251.6 		"/>
		<polygon clip-path="url(#SVGID_53_)" fill="#015CAB" points="1965.9,329.5 1995.2,265.5 1956.8,265.5 1956.8,251.7 2012.7,251.7 
			2012.7,262 1983.2,329.5 		"/>
		<path clip-path="url(#SVGID_53_)" fill="#EAF0F4" d="M1998.8,641l0.5,6.3l0,0c0.1,0.6,0.6,1.1,1.2,1c0.6,0,1.1-0.6,1-1.2l0,0
			l-0.6-6.4c-0.1-0.6-0.6-1-1.2-1C1999.2,639.9,1998.8,640.4,1998.8,641L1998.8,641z"/>
		<path clip-path="url(#SVGID_53_)" fill="#EAF0F4" d="M1999.9,662.1l0,6.3v0c0,0.7,0.5,1.2,1.2,1.2c0.7,0,1.2-0.5,1.2-1.2v0l0-6.4
			c0-0.6-0.5-1.2-1.2-1.2C2000.4,661,1999.9,661.5,1999.9,662.1L1999.9,662.1z"/>
		<path clip-path="url(#SVGID_53_)" fill="#EAF0F4" d="M1999.2,683.3l-0.6,6.3l0,0c-0.1,0.7,0.5,1.4,1.2,1.4
			c0.7,0.1,1.4-0.5,1.4-1.2l0,0l0.5-6.4c0.1-0.7-0.5-1.3-1.2-1.4C1999.9,682,1999.2,682.5,1999.2,683.3L1999.2,683.3z"/>
		<path clip-path="url(#SVGID_53_)" fill="#EAF0F4" d="M1996.7,704.3l-1.1,6.2l0,0c-0.1,0.8,0.4,1.5,1.2,1.6
			c0.8,0.1,1.5-0.4,1.6-1.2l0,0l1-6.3c0.1-0.8-0.4-1.5-1.1-1.6C1997.5,703,1996.8,703.5,1996.7,704.3L1996.7,704.3z"/>
		<path clip-path="url(#SVGID_53_)" fill="#EAF0F4" d="M1992.5,725l-1.6,6.1l0,0c-0.2,0.8,0.3,1.7,1.1,1.9c0.8,0.2,1.7-0.3,1.9-1.1
			l0,0l1.5-6.2c0.2-0.8-0.3-1.6-1.1-1.8C1993.5,723.7,1992.7,724.1,1992.5,725L1992.5,725z"/>
		<path clip-path="url(#SVGID_53_)" fill="#EAF0F4" d="M1986.6,745.3l-2.1,6l0,0c-0.3,0.9,0.2,1.8,1,2.1c0.9,0.3,1.8-0.2,2.1-1l0,0
			l2-6.1c0.3-0.8-0.2-1.8-1-2C1987.8,744,1986.9,744.4,1986.6,745.3L1986.6,745.3z"/>
		<path clip-path="url(#SVGID_53_)" fill="#EAF0F4" d="M1979.3,765.1l-2.5,5.8l0,0c-0.4,0.9,0,1.9,0.9,2.3c0.9,0.4,1.9,0,2.3-0.9
			l0,0l2.5-5.9c0.4-0.9,0-1.9-0.9-2.2C1980.7,763.8,1979.7,764.2,1979.3,765.1L1979.3,765.1z"/>
		<path clip-path="url(#SVGID_53_)" fill="#EAF0F4" d="M1970.4,784.3l-2.9,5.6l0,0c-0.5,0.9-0.1,2,0.8,2.5c0.9,0.5,2,0.1,2.5-0.8
			l0,0l2.9-5.7c0.5-0.9,0.1-2-0.8-2.5C1972,783,1970.9,783.3,1970.4,784.3L1970.4,784.3z"/>
		<path clip-path="url(#SVGID_53_)" fill="#EAF0F4" d="M1960.2,802.7l-3.3,5.4l0,0c-0.6,0.9-0.3,2.1,0.6,2.7
			c0.9,0.6,2.1,0.3,2.7-0.6l0,0l3.3-5.5c0.6-0.9,0.3-2.1-0.7-2.7C1961.9,801.5,1960.8,801.8,1960.2,802.7L1960.2,802.7z"/>
		<path clip-path="url(#SVGID_53_)" fill="#EAF0F4" d="M1948.6,820.4l-3.7,5.1l0,0c-0.7,0.9-0.5,2.2,0.5,2.9
			c0.9,0.7,2.2,0.5,2.9-0.5l0,0l3.7-5.2c0.7-0.9,0.4-2.2-0.5-2.9C1950.6,819.2,1949.3,819.4,1948.6,820.4L1948.6,820.4z"/>
		<path clip-path="url(#SVGID_53_)" fill="#EAF0F4" d="M1935.7,837.1l-4.1,4.8l0,0c-0.8,0.9-0.7,2.3,0.3,3.1
			c0.9,0.8,2.3,0.7,3.1-0.3l0,0l4.1-4.9c0.8-0.9,0.6-2.3-0.3-3C1937.9,836,1936.5,836.1,1935.7,837.1L1935.7,837.1z"/>
		<path clip-path="url(#SVGID_53_)" fill="#EAF0F4" d="M1921.7,852.8l-4.5,4.5l0,0c-0.9,0.9-0.9,2.4,0,3.2c0.9,0.9,2.4,0.9,3.2,0
			l0,0l4.5-4.6c0.9-0.9,0.8-2.3,0-3.2C1924,851.8,1922.6,851.9,1921.7,852.8L1921.7,852.8z"/>
		<path clip-path="url(#SVGID_53_)" fill="#EAF0F4" d="M1906.4,867.3l-4.8,4.1l0,0c-1,0.9-1.1,2.4-0.2,3.4c0.9,1,2.4,1.1,3.4,0.2
			l0,0l4.8-4.3c1-0.9,1.1-2.4,0.2-3.3C1908.9,866.6,1907.5,866.5,1906.4,867.3L1906.4,867.3z"/>
		<path clip-path="url(#SVGID_53_)" fill="#EAF0F4" d="M1890.1,880.7l-5.1,3.7l0,0c-1.1,0.8-1.4,2.4-0.5,3.5
			c0.8,1.1,2.4,1.4,3.5,0.5l0,0l5.1-3.9c1.1-0.8,1.3-2.4,0.5-3.5C1892.8,880,1891.3,879.8,1890.1,880.7L1890.1,880.7z"/>
		<path clip-path="url(#SVGID_53_)" fill="#EAF0F4" d="M1872.8,892.6l-5.4,3.3l-0.1,0c-1.2,0.8-1.6,2.3-0.8,3.6
			c0.8,1.2,2.3,1.6,3.6,0.8l0,0l5.5-3.4c1.2-0.8,1.6-2.3,0.8-3.5C1875.7,892.2,1874.1,891.8,1872.8,892.6L1872.8,892.6z"/>
		<path clip-path="url(#SVGID_53_)" fill="#EAF0F4" d="M1854.6,903.1l-5.6,2.8l-0.1,0c-1.3,0.7-1.8,2.3-1.2,3.6
			c0.7,1.3,2.3,1.8,3.6,1.2l0,0l5.7-2.9c1.3-0.7,1.8-2.3,1.1-3.5C1857.5,903,1856,902.4,1854.6,903.1L1854.6,903.1z"/>
		<path clip-path="url(#SVGID_53_)" fill="#EAF0F4" d="M1835.6,912l-5.9,2.3l-0.1,0c-1.4,0.6-2.1,2.1-1.5,3.5
			c0.6,1.4,2.1,2.1,3.5,1.5l0,0l6-2.4c1.4-0.6,2-2.1,1.5-3.5C1838.6,912.1,1837,911.4,1835.6,912L1835.6,912z"/>
		<path clip-path="url(#SVGID_53_)" fill="#EAF0F4" d="M1815.8,919.3l-6,1.9l-0.1,0c-1.5,0.5-2.3,2-1.8,3.5c0.5,1.5,2,2.3,3.5,1.8
			l0,0l6.1-1.9c1.5-0.5,2.3-2,1.8-3.5C1818.9,919.6,1817.4,918.8,1815.8,919.3L1815.8,919.3z"/>
		<path clip-path="url(#SVGID_53_)" fill="#EAF0F4" d="M1795.6,924.9l-6.2,1.4l-0.1,0c-1.5,0.3-2.5,1.9-2.1,3.4
			c0.3,1.5,1.9,2.5,3.4,2.1l0,0l6.3-1.5c1.5-0.4,2.5-1.9,2.1-3.4C1798.7,925.5,1797.2,924.6,1795.6,924.9L1795.6,924.9z"/>
		<path clip-path="url(#SVGID_53_)" fill="#EAF0F4" d="M1775,929l-6.2,0.9l-0.1,0c-1.6,0.2-2.7,1.7-2.4,3.3c0.2,1.6,1.7,2.7,3.3,2.4
			l0,0l6.4-1c1.6-0.2,2.7-1.7,2.4-3.3C1778.1,929.8,1776.6,928.7,1775,929L1775,929z"/>
		<path clip-path="url(#SVGID_53_)" fill="#EAF0F4" d="M1754.1,931.5l-6.3,0.5l-0.1,0c-1.6,0.1-2.9,1.5-2.7,3.2
			c0.1,1.6,1.5,2.9,3.2,2.7l0,0l6.4-0.5c1.6-0.1,2.8-1.6,2.7-3.2C1757.2,932.6,1755.8,931.4,1754.1,931.5L1754.1,931.5z"/>
		<path clip-path="url(#SVGID_53_)" fill="#EAF0F4" d="M1733.1,932.6l-6.3,0h-0.1c-1.7,0-3,1.4-3,3c0,1.7,1.4,3,3,3h0l6.4-0.1
			c1.7,0,3-1.4,3-3C1736.1,933.9,1734.8,932.6,1733.1,932.6L1733.1,932.6z"/>
		<path clip-path="url(#SVGID_53_)" fill="#EAF0F4" d="M1712,932.3l-6.3-0.4l-0.1,0c-1.7-0.1-3.2,1.2-3.3,2.9
			c-0.1,1.7,1.2,3.2,2.9,3.3l0,0l6.4,0.3c1.7,0.1,3.1-1.2,3.2-2.9C1715,933.9,1713.8,932.4,1712,932.3L1712,932.3z"/>
		<path clip-path="url(#SVGID_53_)" fill="#EAF0F4" d="M1691,930.7l-6.3-0.7l-0.1,0c-1.7-0.2-3.3,1-3.5,2.8c-0.2,1.7,1,3.3,2.8,3.5
			l0,0l6.4,0.7c1.7,0.2,3.3-1,3.5-2.8C1694,932.4,1692.8,930.9,1691,930.7L1691,930.7z"/>
		<path clip-path="url(#SVGID_53_)" fill="#EAF0F4" d="M1670.2,927.8l-6.2-1.1l-0.1,0c-1.7-0.3-3.4,0.9-3.7,2.6
			c-0.3,1.7,0.9,3.4,2.6,3.7l0,0l6.3,1.1c1.7,0.3,3.4-0.9,3.7-2.6C1673.1,929.7,1671.9,928.1,1670.2,927.8L1670.2,927.8z"/>
		<path clip-path="url(#SVGID_53_)" fill="#EAF0F4" d="M1649.5,923.7l-6.2-1.4l-0.1,0c-1.8-0.4-3.5,0.7-3.9,2.4
			c-0.4,1.8,0.7,3.5,2.4,3.9l0,0l6.3,1.4c1.8,0.4,3.5-0.7,3.9-2.4C1652.4,925.9,1651.3,924.1,1649.5,923.7L1649.5,923.7z"/>
		<path clip-path="url(#SVGID_53_)" fill="#EAF0F4" d="M1629.1,918.5l-6.1-1.8l0,0c-1.8-0.5-3.6,0.5-4.1,2.3
			c-0.5,1.8,0.5,3.6,2.3,4.1l0,0l6.2,1.8c1.8,0.5,3.6-0.5,4.1-2.3C1631.9,920.9,1630.8,919.1,1629.1,918.5L1629.1,918.5z"/>
		<path clip-path="url(#SVGID_53_)" fill="#EAF0F4" d="M1608.9,912.3l-6-2.1l0,0c-1.8-0.6-3.7,0.3-4.3,2.1c-0.6,1.8,0.3,3.7,2.1,4.3
			l0,0l6.1,2.1c1.8,0.6,3.7-0.3,4.3-2.1C1611.6,914.8,1610.7,912.9,1608.9,912.3L1608.9,912.3z"/>
		<path clip-path="url(#SVGID_53_)" fill="#EAF0F4" d="M1589.1,905.1l-5.9-2.4l0,0c-1.8-0.7-3.8,0.1-4.5,1.9
			c-0.7,1.8,0.1,3.8,1.9,4.5l0,0l6,2.4c1.8,0.7,3.8-0.2,4.5-1.9C1591.8,907.8,1590.9,905.8,1589.1,905.1L1589.1,905.1z"/>
		<path clip-path="url(#SVGID_53_)" fill="#EAF0F4" d="M1569.7,896.9l-5.8-2.6l0,0c-1.8-0.8-3.8,0-4.7,1.7c-0.8,1.8,0,3.9,1.7,4.7
			l0,0l5.9,2.6c1.8,0.8,3.8,0,4.6-1.8C1572.2,899.8,1571.5,897.7,1569.7,896.9L1569.7,896.9z"/>
		<path clip-path="url(#SVGID_53_)" fill="#EAF0F4" d="M1550.6,887.8l-5.6-2.9l0,0c-1.8-0.9-3.9-0.2-4.8,1.5
			c-0.9,1.8-0.2,3.9,1.5,4.8l0,0l5.7,2.9c1.8,0.9,3.9,0.2,4.8-1.6C1553.1,890.9,1552.4,888.7,1550.6,887.8L1550.6,887.8z"/>
		<path clip-path="url(#SVGID_53_)" fill="#EAF0F4" d="M1532,877.9l-5.5-3.1l0,0c-1.7-1-3.9-0.4-4.9,1.3c-1,1.7-0.4,3.9,1.3,4.9l0,0
			l5.6,3.2c1.7,1,3.9,0.4,4.9-1.3C1534.4,881.1,1533.8,878.9,1532,877.9L1532,877.9z"/>
		<path clip-path="url(#SVGID_53_)" fill="#EAF0F4" d="M1513.9,867.2l-5.4-3.4l0,0c-1.7-1.1-3.9-0.5-5,1.2c-1.1,1.7-0.5,3.9,1.2,5
			l0,0l5.5,3.4c1.7,1.1,3.9,0.5,5-1.2C1516.1,870.5,1515.6,868.2,1513.9,867.2L1513.9,867.2z"/>
		<path clip-path="url(#SVGID_53_)" fill="#EAF0F4" d="M1496.1,855.8l-5.3-3.5l0,0c-1.7-1.1-3.9-0.7-5.1,1c-1.1,1.7-0.7,3.9,1,5.1
			l0,0l5.3,3.6c1.7,1.1,3.9,0.7,5-1S1497.8,856.9,1496.1,855.8L1496.1,855.8z"/>
		<path clip-path="url(#SVGID_53_)" fill="#EAF0F4" d="M1478.7,843.7l-5.1-3.7l0,0c-1.6-1.2-3.9-0.8-5.1,0.8
			c-1.2,1.6-0.8,3.9,0.8,5.1l0,0l5.2,3.8c1.6,1.2,3.9,0.8,5.1-0.8C1480.7,847.2,1480.4,844.9,1478.7,843.7L1478.7,843.7z"/>
		<path clip-path="url(#SVGID_53_)" fill="#EAF0F4" d="M1461.7,831.1l-5-3.9l0,0c-1.6-1.2-3.9-1-5.2,0.7c-1.2,1.6-0.9,3.9,0.7,5.2
			l0,0l5.1,3.9c1.6,1.2,3.9,0.9,5.2-0.7C1463.7,834.7,1463.4,832.4,1461.7,831.1L1461.7,831.1z"/>
		<path clip-path="url(#SVGID_53_)" fill="#EAF0F4" d="M1445.2,818l-4.9-4l0,0c-1.6-1.3-3.9-1.1-5.2,0.5c-1.3,1.6-1.1,3.9,0.5,5.2
			l0,0l5,4.1c1.6,1.3,3.9,1.1,5.2-0.5C1447,821.6,1446.8,819.3,1445.2,818L1445.2,818z"/>
		<path clip-path="url(#SVGID_53_)" fill="#EAF0F4" d="M1428.9,804.4l-4.8-4.2l0,0c-1.6-1.3-3.9-1.2-5.3,0.4
			c-1.3,1.6-1.2,3.9,0.4,5.2l0,0l4.9,4.2c1.6,1.3,3.9,1.2,5.2-0.4C1430.7,808.1,1430.5,805.8,1428.9,804.4L1428.9,804.4z"/>
		<path clip-path="url(#SVGID_53_)" fill="#EAF0F4" d="M1413,790.5l-4.7-4.3l0,0c-1.5-1.4-3.9-1.3-5.3,0.3c-1.4,1.5-1.3,3.9,0.3,5.3
			l0,0l4.8,4.3c1.5,1.4,3.9,1.3,5.3-0.3C1414.7,794.2,1414.6,791.9,1413,790.5L1413,790.5z"/>
		<path clip-path="url(#SVGID_53_)" fill="#EAF0F4" d="M1397.4,776.2l-4.6-4.4l0,0c-1.5-1.4-3.9-1.4-5.3,0.2
			c-1.4,1.5-1.4,3.9,0.2,5.3l0,0l4.7,4.4c1.5,1.4,3.9,1.3,5.3-0.2C1399,780,1398.9,777.6,1397.4,776.2L1397.4,776.2z"/>
		<path clip-path="url(#SVGID_53_)" fill="#EAF0F4" d="M1382.1,761.5l-4.6-4.4l0,0c-1.5-1.5-3.9-1.4-5.3,0.1
			c-1.5,1.5-1.4,3.9,0.1,5.4l0,0l4.6,4.5c1.5,1.5,3.9,1.4,5.3-0.1C1383.6,765.4,1383.6,763,1382.1,761.5L1382.1,761.5z"/>
		<path clip-path="url(#SVGID_53_)" fill="#EAF0F4" d="M1367,746.7l-4.5-4.5l0,0c-1.5-1.5-3.9-1.5-5.4,0c-1.5,1.5-1.5,3.9,0,5.4l0,0
			l4.5,4.5c1.5,1.5,3.9,1.5,5.4,0C1368.5,750.6,1368.5,748.1,1367,746.7L1367,746.7z"/>
		<path clip-path="url(#SVGID_53_)" fill="#EAF0F4" d="M1352.1,731.6l-4.4-4.6l0,0c-1.5-1.5-3.9-1.6-5.4-0.1
			c-1.5,1.5-1.6,3.9-0.1,5.4l0,0l4.5,4.6c1.5,1.5,3.9,1.5,5.4,0.1C1353.5,735.5,1353.6,733.1,1352.1,731.6L1352.1,731.6z"/>
		<path clip-path="url(#SVGID_53_)" fill="#EAF0F4" d="M1337.4,716.3l-4.4-4.6c-1.5-1.5-3.9-1.6-5.4-0.1c-1.5,1.5-1.6,3.9-0.1,5.4
			l0,0l4.4,4.6c1.5,1.5,3.9,1.6,5.4,0.1C1338.8,720.2,1338.8,717.8,1337.4,716.3"/>
		<path clip-path="url(#SVGID_53_)" fill="#EAF0F4" d="M1322.8,700.9l-4.4-4.6c-1.5-1.6-3.9-1.6-5.5-0.2c-1.6,1.5-1.6,3.9-0.2,5.5
			l0,0l4.4,4.7c1.5,1.6,3.9,1.6,5.5,0.2C1324.2,704.9,1324.2,702.4,1322.8,700.9"/>
		<path clip-path="url(#SVGID_53_)" fill="#EAF0F4" d="M1308.3,685.3l-4.3-4.7c-1.5-1.6-3.9-1.7-5.5-0.2c-1.6,1.5-1.7,3.9-0.2,5.5
			l0,0l4.4,4.7c1.5,1.6,3.9,1.7,5.5,0.2C1309.6,689.4,1309.7,686.9,1308.3,685.3"/>
		<path clip-path="url(#SVGID_53_)" fill="#EAF0F4" d="M1293.8,669.8l-4.3-4.7c-1.5-1.6-3.9-1.7-5.5-0.2c-1.6,1.5-1.7,3.9-0.2,5.5
			l0,0l4.3,4.7c1.5,1.6,3.9,1.7,5.5,0.2C1295.2,673.8,1295.3,671.3,1293.8,669.8"/>
		<path clip-path="url(#SVGID_53_)" fill="#EAF0F4" d="M1279.4,654.2l-4.3-4.7c-1.5-1.6-4-1.7-5.5-0.2c-1.6,1.5-1.7,4-0.2,5.5l0,0
			l4.3,4.7c1.5,1.6,4,1.7,5.5,0.2C1280.8,658.2,1280.9,655.7,1279.4,654.2"/>
		<path clip-path="url(#SVGID_53_)" fill="#EAF0F4" d="M1264.9,638.6l-4.4-4.7c-1.5-1.6-4-1.7-5.6-0.2c-1.6,1.5-1.7,4-0.2,5.6l0,0
			l4.4,4.6c1.5,1.6,4,1.7,5.6,0.2C1266.3,642.7,1266.4,640.2,1264.9,638.6"/>
		<path clip-path="url(#SVGID_53_)" fill="#EAF0F4" d="M1250.4,623.1l-4.4-4.6c-1.5-1.6-4-1.7-5.6-0.2c-1.6,1.5-1.7,4-0.2,5.6l0,0
			l4.4,4.6c1.5,1.6,4,1.7,5.6,0.2C1251.8,627.1,1251.9,624.6,1250.4,623.1"/>
		<path clip-path="url(#SVGID_53_)" fill="#EAF0F4" d="M1235.7,607.6l-4.4-4.6c-1.5-1.6-4-1.6-5.6-0.1c-1.6,1.5-1.6,4-0.1,5.6l0,0
			l0,0l4.4,4.6l0,0c1.5,1.6,4,1.6,5.6,0.1C1237.2,611.7,1237.2,609.2,1235.7,607.6"/>
		<path clip-path="url(#SVGID_53_)" fill="#EAF0F4" d="M1220.9,592.3l-4.5-4.6c-1.6-1.6-4.1-1.6-5.7,0c-1.6,1.6-1.6,4.1,0,5.7l0,0
			l0,0l4.5,4.5l0,0c1.6,1.6,4.1,1.6,5.7,0C1222.4,596.4,1222.4,593.9,1220.9,592.3"/>
		<path clip-path="url(#SVGID_53_)" fill="#EAF0F4" d="M1205.9,577.2l-4.5-4.5c-1.6-1.6-4.1-1.5-5.7,0c-1.6,1.6-1.6,4.1,0,5.7l0,0
			l0,0l4.5,4.5l0,0c1.6,1.6,4.1,1.5,5.7,0C1207.5,581.3,1207.5,578.8,1205.9,577.2"/>
		<path clip-path="url(#SVGID_53_)" fill="#EAF0F4" d="M1190.6,562.3l-4.6-4.4c-1.6-1.5-4.2-1.5-5.7,0.1c-1.5,1.6-1.5,4.2,0.1,5.7
			l0,0l0,0l4.6,4.4l0,0c1.6,1.5,4.2,1.5,5.7-0.1C1192.3,566.4,1192.2,563.8,1190.6,562.3"/>
		<path clip-path="url(#SVGID_53_)" fill="#EAF0F4" d="M1175.1,547.7l-4.7-4.3c-1.6-1.5-4.2-1.4-5.7,0.2c-1.5,1.6-1.4,4.2,0.2,5.7
			l0,0l4.7,4.3l0,0c1.6,1.5,4.2,1.4,5.7-0.2C1176.9,551.7,1176.8,549.2,1175.1,547.7L1175.1,547.7z"/>
		<path clip-path="url(#SVGID_53_)" fill="#EAF0F4" d="M1159.3,533.3l-4.8-4.2c-1.7-1.5-4.2-1.3-5.7,0.4c-1.5,1.7-1.3,4.2,0.4,5.7
			l0,0l4.8,4.2l0,0c1.7,1.5,4.2,1.3,5.7-0.4C1161.1,537.4,1161,534.8,1159.3,533.3L1159.3,533.3z"/>
		<path clip-path="url(#SVGID_53_)" fill="#EAF0F4" d="M1143.1,519.4l-4.9-4.1c-1.7-1.4-4.2-1.2-5.6,0.5c-1.4,1.7-1.2,4.2,0.5,5.6
			l0,0l4.9,4.1l0,0c1.7,1.4,4.2,1.2,5.6-0.5C1145.1,523.3,1144.8,520.8,1143.1,519.4L1143.1,519.4z"/>
		<path clip-path="url(#SVGID_53_)" fill="#EAF0F4" d="M1126.6,505.8l-5-4c-1.7-1.4-4.2-1.1-5.6,0.7c-1.4,1.7-1.1,4.2,0.7,5.6l0,0
			l5,3.9l0,0c1.7,1.4,4.2,1.1,5.6-0.6C1128.7,509.7,1128.4,507.2,1126.6,505.8L1126.6,505.8z"/>
		<path clip-path="url(#SVGID_53_)" fill="#EAF0F4" d="M1109.7,492.8l-5.1-3.8c-1.8-1.3-4.2-0.9-5.6,0.8c-1.3,1.8-0.9,4.2,0.8,5.6
			l0,0l5.1,3.8l0,0c1.8,1.3,4.3,1,5.6-0.8C1111.9,496.6,1111.5,494.1,1109.7,492.8L1109.7,492.8z"/>
		<path clip-path="url(#SVGID_53_)" fill="#EAF0F4" d="M1092.4,480.2l-5.3-3.7c-1.8-1.2-4.3-0.8-5.5,1c-1.2,1.8-0.8,4.3,1,5.5l0,0
			l5.2,3.6l0,0c1.8,1.3,4.3,0.8,5.5-1C1094.7,483.9,1094.2,481.4,1092.4,480.2L1092.4,480.2z"/>
		<path clip-path="url(#SVGID_53_)" fill="#EAF0F4" d="M1074.7,468.2l-5.4-3.5c-1.8-1.2-4.3-0.6-5.4,1.2c-1.2,1.8-0.6,4.3,1.2,5.4
			l0,0l5.3,3.4l0,0c1.8,1.2,4.3,0.7,5.5-1.2C1077.1,471.8,1076.6,469.4,1074.7,468.2L1074.7,468.2z"/>
		<path clip-path="url(#SVGID_53_)" fill="#EAF0F4" d="M1056.6,456.9l-5.5-3.3c-1.9-1.1-4.3-0.5-5.4,1.4c-1.1,1.9-0.5,4.3,1.4,5.4
			l0,0l5.4,3.2l0,0c1.9,1.1,4.3,0.5,5.4-1.4C1059.1,460.4,1058.5,458,1056.6,456.9L1056.6,456.9z"/>
		<path clip-path="url(#SVGID_53_)" fill="#EAF0F4" d="M1038,446.2l-5.6-3.1c-1.9-1-4.3-0.3-5.3,1.6c-1,1.9-0.3,4.3,1.6,5.3l0,0
			l5.6,3l0,0c1.9,1,4.3,0.3,5.3-1.6C1040.6,449.6,1039.9,447.2,1038,446.2L1038,446.2z"/>
		<path clip-path="url(#SVGID_53_)" fill="#EAF0F4" d="M1019.1,436.2l-5.7-2.9c-1.9-1-4.3-0.2-5.2,1.8c-1,1.9-0.2,4.3,1.8,5.2l0,0
			l5.7,2.8l0,0c1.9,1,4.3,0.2,5.2-1.7C1021.8,439.5,1021,437.2,1019.1,436.2L1019.1,436.2z"/>
		<path clip-path="url(#SVGID_53_)" fill="#EAF0F4" d="M999.8,427l-5.8-2.6c-2-0.9-4.3,0-5.1,1.9s0,4.3,1.9,5.1l0,0l5.8,2.6l0,0
			c2,0.9,4.3,0,5.1-1.9C1002.7,430.1,1001.8,427.8,999.8,427L999.8,427z"/>
		<path clip-path="url(#SVGID_53_)" fill="#EAF0F4" d="M980.3,418.4l-5.9-2.4c-2-0.8-4.2,0.1-5,2.1c-0.8,2,0.1,4.2,2.1,5l0,0
			l5.9,2.4l0,0c2,0.8,4.2-0.1,5.1-2.1C983.2,421.4,982.2,419.2,980.3,418.4L980.3,418.4z"/>
		<path clip-path="url(#SVGID_53_)" fill="#EAF0F4" d="M960.4,410.5l-6-2.2c-2-0.7-4.2,0.3-4.9,2.3c-0.7,2,0.3,4.2,2.3,4.9l0,0
			l5.9,2.2l0,0c2,0.7,4.2-0.3,5-2.3C963.4,413.5,962.4,411.2,960.4,410.5L960.4,410.5z"/>
		<path clip-path="url(#SVGID_53_)" fill="#EAF0F4" d="M940.2,403.3l-6.1-2c-2-0.7-4.2,0.4-4.8,2.4c-0.7,2,0.4,4.2,2.4,4.8l0,0l6,2
			l0,0c2,0.7,4.2-0.4,4.9-2.4C943.3,406.2,942.2,404,940.2,403.3L940.2,403.3z"/>
		<path clip-path="url(#SVGID_53_)" fill="#EAF0F4" d="M919.8,396.9l-6.2-1.8c-2-0.6-4.1,0.6-4.7,2.6c-0.6,2,0.6,4.1,2.6,4.7l0,0
			l6.1,1.8l0,0c2,0.6,4.1-0.6,4.7-2.6C923,399.6,921.8,397.5,919.8,396.9L919.8,396.9z"/>
		<path clip-path="url(#SVGID_53_)" fill="#EAF0F4" d="M899.2,391.2l-6.2-1.6c-2-0.5-4.1,0.7-4.6,2.8c-0.5,2,0.7,4.1,2.8,4.6l0,0
			l6.1,1.6l0,0c2,0.5,4.1-0.7,4.6-2.7C902.5,393.8,901.2,391.7,899.2,391.2L899.2,391.2z"/>
		<path clip-path="url(#SVGID_53_)" fill="#EAF0F4" d="M878.4,386.2l-6.3-1.4c-2-0.4-4.1,0.9-4.5,2.9c-0.4,2,0.9,4.1,2.9,4.5l0,0
			l6.2,1.3l0,0c2,0.4,4.1-0.9,4.5-2.9C881.8,388.6,880.5,386.6,878.4,386.2L878.4,386.2z"/>
		<path clip-path="url(#SVGID_53_)" fill="#EAF0F4" d="M857.4,381.9l-6.3-1.1c-2.1-0.4-4,1-4.4,3c-0.4,2,1,4,3,4.4l0,0l6.2,1.1l0,0
			c2.1,0.4,4-1,4.4-3C860.9,384.2,859.5,382.3,857.4,381.9L857.4,381.9z"/>
		<path clip-path="url(#SVGID_53_)" fill="#EAF0F4" d="M836.3,378.4l-6.4-0.9c-2.1-0.3-4,1.1-4.3,3.2c-0.3,2.1,1.1,4,3.2,4.3l0,0
			l6.3,0.9l0,0c2.1,0.3,4-1.1,4.3-3.2C839.8,380.6,838.4,378.7,836.3,378.4L836.3,378.4z"/>
		<path clip-path="url(#SVGID_53_)" fill="#EAF0F4" d="M815.1,375.6l-6.4-0.7c-2.1-0.2-3.9,1.3-4.1,3.3c-0.2,2.1,1.3,3.9,3.3,4.1
			l0,0l6.3,0.7l0,0c2.1,0.2,3.9-1.3,4.1-3.3C818.7,377.7,817.2,375.8,815.1,375.6L815.1,375.6z"/>
		<path clip-path="url(#SVGID_53_)" fill="#EAF0F4" d="M793.8,373.6l-6.4-0.5c-2.1-0.1-3.8,1.4-4,3.4c-0.1,2.1,1.4,3.8,3.4,4l0,0
			l6.3,0.5l0,0c2.1,0.2,3.8-1.4,4-3.4C797.4,375.5,795.9,373.7,793.8,373.6L793.8,373.6z"/>
		<path clip-path="url(#SVGID_53_)" fill="#EAF0F4" d="M772.5,372.3l-6.4-0.2c-2-0.1-3.8,1.5-3.8,3.6c-0.1,2,1.5,3.8,3.6,3.8l0,0
			l6.3,0.2l0,0c2,0.1,3.8-1.5,3.9-3.6C776.1,374.1,774.6,372.4,772.5,372.3L772.5,372.3z"/>
		<path clip-path="url(#SVGID_53_)" fill="#EAF0F4" d="M751.1,371.8l-6.4,0c-2,0-3.7,1.7-3.7,3.7c0,2,1.7,3.7,3.7,3.7h0l6.3,0h0
			c2,0,3.7-1.6,3.7-3.7C754.8,373.5,753.2,371.8,751.1,371.8L751.1,371.8z"/>
		<path clip-path="url(#SVGID_53_)" fill="#EAF0F4" d="M729.7,372.1l-6.4,0.2c-2,0.1-3.6,1.8-3.5,3.8c0.1,2,1.8,3.6,3.8,3.5l0,0
			l6.3-0.2l0,0c2-0.1,3.6-1.8,3.6-3.8C733.5,373.6,731.8,372,729.7,372.1L729.7,372.1z"/>
		<path clip-path="url(#SVGID_53_)" fill="#EAF0F4" d="M708.4,373.1l-6.4,0.5c-2,0.1-3.5,1.9-3.4,3.9c0.1,2,1.9,3.5,3.9,3.4l0,0
			l6.3-0.4l0,0c2-0.1,3.5-1.9,3.4-3.9C712.2,374.5,710.4,373,708.4,373.1L708.4,373.1z"/>
		<path clip-path="url(#SVGID_53_)" fill="#EAF0F4" d="M687.1,374.9l-6.4,0.7c-2,0.2-3.4,2-3.2,4c0.2,2,2,3.4,4,3.2l0,0l6.3-0.7l0,0
			c2-0.2,3.5-2,3.2-4C690.9,376.1,689.1,374.7,687.1,374.9L687.1,374.9z"/>
		<path clip-path="url(#SVGID_53_)" fill="#EAF0F4" d="M665.8,377.5l-6.3,0.9c-2,0.3-3.4,2.1-3.1,4.1c0.3,2,2.1,3.4,4.1,3.1l0,0
			l6.3-0.9l0,0c2-0.3,3.4-2.1,3.1-4.1C669.7,378.6,667.8,377.2,665.8,377.5L665.8,377.5z"/>
		<path clip-path="url(#SVGID_53_)" fill="#EAF0F4" d="M644.7,380.9l-6.3,1.2c-2,0.4-3.3,2.3-2.9,4.2c0.4,2,2.3,3.3,4.2,2.9l0,0
			l6.2-1.2l0,0c2-0.4,3.3-2.3,2.9-4.2C648.6,381.8,646.7,380.5,644.7,380.9L644.7,380.9z"/>
		<path clip-path="url(#SVGID_53_)" fill="#EAF0F4" d="M623.7,385.2l-6.3,1.5c-1.9,0.5-3.1,2.4-2.7,4.3c0.5,1.9,2.4,3.1,4.3,2.7l0,0
			l6.2-1.4l0,0c1.9-0.5,3.1-2.4,2.7-4.3C627.6,386,625.7,384.8,623.7,385.2L623.7,385.2z"/>
		<path clip-path="url(#SVGID_53_)" fill="#EAF0F4" d="M603,390.4l-6.2,1.8c-1.9,0.5-3,2.5-2.5,4.4c0.5,1.9,2.5,3,4.4,2.5l0,0
			l6.1-1.7l0,0c1.9-0.5,3-2.5,2.5-4.4C606.9,391,604.9,389.9,603,390.4L603,390.4z"/>
		<path clip-path="url(#SVGID_53_)" fill="#EAF0F4" d="M582.5,396.7l-6.1,2.1c-1.9,0.6-2.8,2.6-2.2,4.5c0.6,1.9,2.6,2.8,4.5,2.2l0,0
			l6-2l0.1,0c1.9-0.6,2.9-2.6,2.2-4.5C586.4,397,584.4,396,582.5,396.7L582.5,396.7z"/>
		<path clip-path="url(#SVGID_53_)" fill="#EAF0F4" d="M562.3,404l-6,2.4c-1.8,0.7-2.7,2.8-1.9,4.5c0.7,1.8,2.8,2.7,4.5,1.9l0,0
			l5.9-2.3l0.1,0c1.8-0.7,2.7-2.8,2-4.6C566.2,404.1,564.1,403.3,562.3,404L562.3,404z"/>
		<path clip-path="url(#SVGID_53_)" fill="#EAF0F4" d="M542.6,412.4l-5.8,2.8c-1.7,0.8-2.5,2.9-1.6,4.6c0.8,1.7,2.9,2.5,4.6,1.6l0,0
			l5.7-2.7l0.1,0c1.7-0.8,2.5-2.9,1.7-4.6C546.4,412.3,544.3,411.6,542.6,412.4L542.6,412.4z"/>
		<path clip-path="url(#SVGID_53_)" fill="#EAF0F4" d="M523.4,422l-5.6,3.1c-1.6,0.9-2.2,3-1.3,4.6c0.9,1.6,3,2.2,4.6,1.3l0,0l5.5-3
			l0.1,0c1.7-0.9,2.3-3,1.3-4.6C527.1,421.7,525.1,421.1,523.4,422L523.4,422z"/>
		<path clip-path="url(#SVGID_53_)" fill="#EAF0F4" d="M504.9,432.9l-5.4,3.5c-1.6,1-2,3.1-1,4.6c1,1.6,3.1,2,4.6,1l0,0l5.3-3.4
			l0.1,0c1.6-1,2-3.1,1-4.7C508.5,432.4,506.5,431.9,504.9,432.9L504.9,432.9z"/>
		<path clip-path="url(#SVGID_53_)" fill="#EAF0F4" d="M487.2,445.2l-5.1,3.9c-1.5,1.1-1.7,3.2-0.6,4.6c1.1,1.5,3.2,1.7,4.6,0.6
			l0.1,0l5-3.8l0.1,0c1.5-1.1,1.7-3.2,0.6-4.7C490.7,444.3,488.7,444,487.2,445.2L487.2,445.2z"/>
		<path clip-path="url(#SVGID_53_)" fill="#EAF0F4" d="M470.5,458.7l-4.8,4.3c-1.3,1.2-1.4,3.3-0.2,4.6c1.2,1.3,3.3,1.4,4.6,0.2
			l0.1,0l4.7-4.2l0.1-0.1c1.3-1.2,1.5-3.3,0.3-4.6C473.9,457.6,471.8,457.5,470.5,458.7L470.5,458.7z"/>
		<path clip-path="url(#SVGID_53_)" fill="#EAF0F4" d="M455,473.6l-4.4,4.7c-1.2,1.3-1.1,3.3,0.2,4.5c1.3,1.2,3.3,1.1,4.5-0.2l0-0.1
			l4.3-4.6l0.1-0.1c1.2-1.3,1.2-3.3-0.1-4.6C458.2,472.3,456.2,472.3,455,473.6L455,473.6z"/>
		<path clip-path="url(#SVGID_53_)" fill="#EAF0F4" d="M440.8,489.9l-3.9,5.1c-1.1,1.4-0.8,3.4,0.6,4.4c1.4,1.1,3.4,0.8,4.4-0.6
			l0.1-0.1l3.8-5l0.1-0.1c1.1-1.4,0.8-3.4-0.6-4.5C443.9,488.2,441.9,488.5,440.8,489.9L440.8,489.9z"/>
		<path clip-path="url(#SVGID_53_)" fill="#EAF0F4" d="M428.3,507.5l-3.4,5.5c-0.9,1.5-0.5,3.4,1,4.3c1.5,0.9,3.4,0.5,4.3-1l0-0.1
			l3.3-5.3l0-0.1c0.9-1.5,0.5-3.4-1-4.3C431.2,505.5,429.2,506,428.3,507.5L428.3,507.5z"/>
		<path clip-path="url(#SVGID_53_)" fill="#EAF0F4" d="M417.6,526.2l-2.8,5.8c-0.7,1.5-0.1,3.4,1.4,4.1c1.5,0.7,3.4,0.1,4.1-1.4
			l0-0.1l2.8-5.6l0-0.1c0.8-1.5,0.1-3.4-1.4-4.1C420.2,524,418.4,524.6,417.6,526.2L417.6,526.2z"/>
		<path clip-path="url(#SVGID_53_)" fill="#EAF0F4" d="M408.8,545.8l-2.3,6c-0.6,1.6,0.2,3.3,1.8,3.9c1.6,0.6,3.3-0.2,3.9-1.8l0-0.1
			l2.3-5.9l0-0.1c0.6-1.6-0.2-3.3-1.8-3.9C411.1,543.4,409.4,544.2,408.8,545.8L408.8,545.8z"/>
		<path clip-path="url(#SVGID_53_)" fill="#EAF0F4" d="M401.8,566.2l-1.7,6.2c-0.4,1.6,0.5,3.2,2.1,3.7c1.6,0.4,3.2-0.5,3.7-2.1
			l0-0.1l1.7-6l0-0.1c0.4-1.6-0.5-3.2-2.1-3.7C403.9,563.6,402.3,564.6,401.8,566.2L401.8,566.2z"/>
		<path clip-path="url(#SVGID_53_)" fill="#EAF0F4" d="M396.7,587.1l-1.2,6.3c-0.3,1.6,0.8,3.1,2.3,3.4c1.6,0.3,3.1-0.8,3.4-2.3
			l0-0.1l1.2-6.2l0-0.1c0.3-1.6-0.7-3.1-2.3-3.4C398.5,584.4,397,585.4,396.7,587.1L396.7,587.1z"/>
		<path clip-path="url(#SVGID_53_)" fill="#EAF0F4" d="M393.4,608.3l-0.6,6.4c-0.2,1.6,1,3,2.6,3.2c1.6,0.2,3-1,3.2-2.6l0-0.1
			l0.6-6.3l0-0.1c0.2-1.6-1-3-2.6-3.2C395,605.5,393.6,606.7,393.4,608.3L393.4,608.3z"/>
		<path clip-path="url(#SVGID_53_)" fill="#EAF0F4" d="M392,629.7l-0.1,6.4c0,1.6,1.2,2.9,2.8,2.9c1.6,0,2.9-1.2,2.9-2.8l0-0.1
			l0.1-6.3l0-0.1c0-1.6-1.2-2.9-2.8-2.9C393.3,626.9,392,628.2,392,629.7L392,629.7z"/>
		<path clip-path="url(#SVGID_53_)" fill="#EAF0F4" d="M392.3,651.2l0.5,6.4c0.1,1.5,1.4,2.7,3,2.6c1.5-0.1,2.7-1.4,2.6-3l0-0.1
			l-0.4-6.3l0-0.1c-0.1-1.5-1.4-2.7-3-2.6C393.4,648.3,392.2,649.7,392.3,651.2L392.3,651.2z"/>
		<path clip-path="url(#SVGID_53_)" fill="#EAF0F4" d="M394.5,672.6l1,6.4c0.2,1.5,1.6,2.5,3.1,2.3c1.5-0.2,2.5-1.6,2.3-3.1l0-0.1
			l-0.9-6.2l0-0.1c-0.2-1.5-1.6-2.5-3.1-2.3C395.3,669.7,394.2,671.1,394.5,672.6L394.5,672.6z"/>
		<path clip-path="url(#SVGID_53_)" fill="#EAF0F4" d="M398.4,693.7l1.5,6.3c0.4,1.4,1.8,2.3,3.3,2c1.4-0.4,2.3-1.8,2-3.3l0-0.1
			l-1.5-6.1l0-0.1c-0.4-1.5-1.8-2.4-3.3-2C398.9,690.8,398,692.3,398.4,693.7L398.4,693.7z"/>
		<path clip-path="url(#SVGID_53_)" fill="#EAF0F4" d="M404.1,714.4l2.1,6.1c0.5,1.4,2,2.1,3.4,1.7c1.4-0.5,2.1-2,1.7-3.4l0-0.1
			l-2-6l0-0.1c-0.5-1.4-2-2.1-3.4-1.7C404.4,711.5,403.7,713,404.1,714.4L404.1,714.4z"/>
		<path clip-path="url(#SVGID_53_)" fill="#EAF0F4" d="M411.7,734.5l2.6,5.9c0.6,1.3,2.1,1.9,3.4,1.3c1.3-0.6,1.9-2.1,1.3-3.4l0-0.1
			l-2.5-5.8l0-0.1c-0.6-1.3-2.1-1.9-3.4-1.3S411.1,733.2,411.7,734.5L411.7,734.5z"/>
		<path clip-path="url(#SVGID_53_)" fill="#EAF0F4" d="M421,753.9l3.2,5.6c0.7,1.2,2.3,1.7,3.5,1c1.2-0.7,1.7-2.3,1-3.5l0-0.1
			l-3.1-5.5l0-0.1c-0.7-1.2-2.3-1.7-3.5-1C420.8,751.1,420.3,752.6,421,753.9L421,753.9z"/>
		<path clip-path="url(#SVGID_53_)" fill="#EAF0F4" d="M432.2,772.2l3.7,5.3c0.8,1.1,2.3,1.4,3.4,0.6c1.1-0.8,1.4-2.3,0.6-3.4l0-0.1
			l-3.6-5.2l0-0.1c-0.8-1.1-2.3-1.4-3.5-0.6C431.7,769.5,431.4,771.1,432.2,772.2L432.2,772.2z"/>
		<path clip-path="url(#SVGID_53_)" fill="#EAF0F4" d="M445.1,789.4l4.2,4.9c0.9,1,2.4,1.1,3.4,0.3c1-0.9,1.1-2.4,0.3-3.4l0-0.1
			l-4.1-4.8l0-0.1c-0.9-1-2.4-1.1-3.4-0.3C444.4,786.8,444.3,788.4,445.1,789.4L445.1,789.4z"/>
		<path clip-path="url(#SVGID_53_)" fill="#EAF0F4" d="M459.7,805.2l4.7,4.4c0.9,0.9,2.4,0.8,3.3-0.1c0.9-0.9,0.8-2.4-0.1-3.2
			l-0.1-0.1l-4.6-4.4l-0.1,0c-0.9-0.9-2.4-0.9-3.3,0.1C458.8,802.8,458.8,804.3,459.7,805.2L459.7,805.2z"/>
		<path clip-path="url(#SVGID_53_)" fill="#EAF0F4" d="M475.9,819.3l5.1,3.9c1,0.8,2.4,0.6,3.1-0.4c0.7-1,0.6-2.4-0.4-3.1l-0.1,0
			l-5-3.9l-0.1,0c-1-0.8-2.4-0.6-3.2,0.4C474.7,817.2,474.9,818.6,475.9,819.3L475.9,819.3z"/>
		<path clip-path="url(#SVGID_53_)" fill="#EAF0F4" d="M493.3,831.9l5.5,3.4c1,0.6,2.3,0.3,3-0.7c0.6-1,0.3-2.3-0.7-2.9l-0.1,0
			l-5.3-3.4l-0.1,0c-1-0.6-2.3-0.3-3,0.7C492,829.9,492.3,831.2,493.3,831.9L493.3,831.9z"/>
		<path clip-path="url(#SVGID_53_)" fill="#EAF0F4" d="M511.8,842.6l5.7,2.9c1,0.5,2.3,0.1,2.8-0.9c0.5-1,0.1-2.2-0.9-2.8l-0.1,0
			l-5.6-2.9l0,0c-1-0.5-2.3-0.1-2.8,0.9C510.4,840.9,510.8,842.1,511.8,842.6L511.8,842.6z"/>
		<path clip-path="url(#SVGID_53_)" fill="#EAF0F4" d="M531.3,851.7l6,2.4c1,0.4,2.2-0.1,2.6-1.1c0.4-1-0.1-2.2-1.1-2.6l0,0
			l-5.9-2.4l0,0c-1-0.4-2.2,0.1-2.6,1.1C529.7,850.1,530.2,851.3,531.3,851.7L531.3,851.7z"/>
		<path clip-path="url(#SVGID_53_)" fill="#EAF0F4" d="M551.4,859l6.2,1.8c1,0.3,2.1-0.3,2.4-1.3c0.3-1-0.3-2-1.3-2.3l0,0l-6.1-1.9
			l0,0c-1-0.3-2.1,0.3-2.4,1.3C549.8,857.6,550.4,858.6,551.4,859L551.4,859z"/>
		<path clip-path="url(#SVGID_53_)" fill="#EAF0F4" d="M572.1,864.5l6.3,1.3c1,0.2,1.9-0.4,2.1-1.4c0.2-1-0.4-1.9-1.4-2.1l0,0
			l-6.2-1.3l0,0c-1-0.2-2,0.4-2.2,1.4C570.5,863.3,571.1,864.3,572.1,864.5L572.1,864.5z"/>
		<path clip-path="url(#SVGID_53_)" fill="#EAF0F4" d="M593.2,868.2l6.4,0.8c0.9,0.1,1.8-0.6,1.9-1.5c0.1-0.9-0.6-1.8-1.5-1.9l0,0
			l-6.3-0.8l0,0c-1-0.1-1.8,0.6-2,1.5C591.5,867.2,592.2,868.1,593.2,868.2L593.2,868.2z"/>
		<path clip-path="url(#SVGID_53_)" fill="#EAF0F4" d="M614.5,870.2l6.4,0.2c0.9,0,1.7-0.7,1.7-1.6c0-0.9-0.7-1.7-1.6-1.7l0,0
			l-6.3-0.3l0,0c-0.9,0-1.7,0.7-1.7,1.6C612.8,869.3,613.5,870.1,614.5,870.2L614.5,870.2z"/>
		<path clip-path="url(#SVGID_53_)" fill="#EAF0F4" d="M635.9,870.3l6.4-0.3c0.9,0,1.5-0.8,1.5-1.6c0-0.9-0.8-1.5-1.6-1.5l0,0
			l-6.3,0.3l0,0c-0.9,0-1.6,0.8-1.5,1.6C634.2,869.7,635,870.4,635.9,870.3L635.9,870.3z"/>
		<path clip-path="url(#SVGID_53_)" fill="#EAF0F4" d="M657.2,868.7l6.4-0.9c0.8-0.1,1.4-0.8,1.3-1.7c-0.1-0.8-0.8-1.4-1.6-1.3l0,0
			l-6.3,0.8l0,0c-0.8,0.1-1.4,0.9-1.3,1.7C655.6,868.2,656.3,868.8,657.2,868.7L657.2,868.7z"/>
		<path clip-path="url(#SVGID_53_)" fill="#EAF0F4" d="M678.3,865.2l6.3-1.4c0.7-0.2,1.2-0.9,1.1-1.7c-0.2-0.7-0.9-1.2-1.7-1.1l0,0
			l-6.2,1.3l0,0c-0.8,0.2-1.2,0.9-1.1,1.7C676.8,864.9,677.5,865.4,678.3,865.2L678.3,865.2z"/>
		<path clip-path="url(#SVGID_53_)" fill="#EAF0F4" d="M699,859.8l6.1-2c0.7-0.2,1.1-1,0.8-1.6c-0.2-0.7-1-1.1-1.6-0.8l0,0l-6,1.9
			l0,0c-0.7,0.2-1.1,1-0.9,1.7C697.5,859.7,698.3,860.1,699,859.8L699,859.8z"/>
		<path clip-path="url(#SVGID_53_)" fill="#EAF0F4" d="M719.1,852.6l5.9-2.5c0.6-0.3,0.9-1,0.6-1.6c-0.3-0.6-1-0.9-1.6-0.6l0,0
			l-5.8,2.5l0,0c-0.6,0.3-0.9,1-0.7,1.6C717.7,852.6,718.4,852.9,719.1,852.6L719.1,852.6z"/>
		<path clip-path="url(#SVGID_53_)" fill="#EAF0F4" d="M738.4,843.5l5.6-3.1c0.6-0.3,0.8-1,0.4-1.6c-0.3-0.5-1-0.7-1.5-0.4l0,0
			l-5.6,3l0,0c-0.6,0.3-0.8,1-0.5,1.6C737.1,843.6,737.8,843.8,738.4,843.5L738.4,843.5z"/>
		<path clip-path="url(#SVGID_53_)" fill="#EAF0F4" d="M756.7,832.4l4.1-2.9c0.5-0.3,0.6-1,0.3-1.5c-0.3-0.5-1-0.6-1.5-0.3l0,0
			l-4.1,2.8l0,0c-0.5,0.3-0.6,1-0.3,1.5C755.5,832.7,756.2,832.8,756.7,832.4L756.7,832.4z"/>
		<path clip-path="url(#SVGID_53_)" fill="#015CAB" d="M496.7,413.5c-2.8,0-5.2-1.7-6.1-4.3l-9.1-25.7c-12.5-3.1-24.5-7.9-35.7-14.5
			l-24.4,12.2c-2.5,1.2-5.5,0.8-7.5-1.2l-25.2-24.8c-2-2-2.5-4.9-1.3-7.5L399,323c-6.7-11.1-11.8-23-15-35.4l-25.9-8.7
			c-2.6-0.9-4.4-3.3-4.4-6.1l-0.3-35.4c0-2.8,1.7-5.3,4.3-6.2l25.7-9.1c3.1-12.5,7.9-24.5,14.5-35.7l-12.2-24.4
			c-1.2-2.5-0.8-5.5,1.2-7.5l24.8-25.2c1.9-2,4.9-2.5,7.5-1.3l24.6,11.8c11.1-6.7,23-11.8,35.4-15l8.7-25.9c0.9-2.6,3.3-4.4,6.1-4.4
			l35.4-0.3h0.1c2.8,0,5.2,1.7,6.1,4.3l9.1,25.7c12.5,3.1,24.5,7.9,35.7,14.5l24.4-12.2c2.5-1.2,5.5-0.8,7.5,1.2l25.3,24.8
			c2,1.9,2.5,4.9,1.3,7.5l-11.8,24.6c6.7,11.1,11.8,23,15,35.4l25.9,8.7c2.6,0.9,4.4,3.3,4.4,6.1l0.3,35.4c0,2.8-1.7,5.3-4.3,6.2
			l-25.7,9.1c-3.1,12.5-7.9,24.5-14.5,35.7l12.2,24.4c1.2,2.5,0.8,5.5-1.2,7.5l-24.8,25.2c-1.9,2-4.9,2.5-7.5,1.3l-24.6-11.8
			c-11.1,6.7-23,11.8-35.4,15l-8.7,25.9c-0.9,2.6-3.3,4.4-6.1,4.4L496.7,413.5L496.7,413.5z M446.1,359.6l1.9,1.2
			c11.6,7.1,24.2,12.2,37.4,15.1l2.2,0.5l10.2,28.8l33-0.3l9.7-29l2.2-0.5c13.2-3.2,25.7-8.5,37.1-15.8l1.9-1.2l27.6,13.2l23.2-23.6
			L619,320.7l1.2-1.9c7.1-11.6,12.2-24.2,15.1-37.4l0.5-2.2l28.8-10.2l-0.3-33l-29-9.7l-0.5-2.2c-3.2-13.1-8.5-25.6-15.8-37.1
			l-1.2-1.9l13.2-27.6l-23.6-23.2l-27.4,13.6l-1.9-1.2c-11.6-7.1-24.2-12.2-37.4-15.1l-2.2-0.5l-10.2-28.8l-33,0.3l-9.7,29l-2.2,0.5
			c-13.2,3.2-25.6,8.5-37.1,15.8l-1.9,1.2l-27.6-13.2l-23.2,23.6l13.6,27.4l-1.2,1.9c-7.1,11.6-12.2,24.2-15.1,37.4l-0.5,2.2
			l-28.8,10.2l0.3,33l29,9.7l0.5,2.2c3.2,13.2,8.5,25.7,15.8,37.1l1.2,1.9l-13.2,27.6l23.6,23.2L446.1,359.6z M482.5,128L482.5,128
			L482.5,128z M512.6,343.9c-23.6,0-45.9-9.1-62.8-25.7c-17.1-16.8-26.6-39.2-26.7-63.1c-0.2-23.9,8.9-46.5,25.7-63.5
			c16.8-17.1,39.2-26.5,63.1-26.7c6.4-0.1,12.8,0.6,19,1.9c2.2,0.5,3.6,2.6,3.2,4.8c-0.5,2.2-2.6,3.6-4.8,3.2
			c-5.6-1.2-11.4-1.8-17.2-1.7c-21.7,0.2-42.1,8.8-57.3,24.3c-15.2,15.5-23.5,36-23.4,57.7c0.2,21.7,8.8,42.1,24.3,57.3
			s35.9,23.6,57.7,23.4c21.7-0.2,42.1-8.8,57.3-24.3c15.2-15.5,23.5-36,23.4-57.7c-0.1-14.8-4.2-29.2-11.9-41.7
			c-1.2-1.9-0.6-4.4,1.4-5.6c1.9-1.2,4.4-0.6,5.6,1.4c8.4,13.8,12.9,29.6,13.1,45.9c0.2,23.9-8.9,46.5-25.7,63.5
			c-16.8,17.1-39.2,26.6-63.1,26.7C513.1,343.9,512.9,343.9,512.6,343.9"/>
		<path clip-path="url(#SVGID_53_)" fill="#015CAB" d="M513.1,289.3c-6.2,0-12.4-1.7-17.9-4.9c-8.2-4.8-14-12.5-16.4-21.7
			c-2.4-9.2-1.1-18.8,3.7-26.9c4.8-8.2,12.5-14,21.7-16.4c19-5,38.4,6.4,43.4,25.4c2.4,9.2,1.1,18.8-3.7,26.9
			c-4.8,8.2-12.5,14-21.7,16.4C519.1,288.9,516.1,289.3,513.1,289.3 M506.2,227.3c-7.1,1.8-13,6.3-16.7,12.6
			c-3.7,6.3-4.7,13.7-2.9,20.7c1.8,7.1,6.3,13,12.6,16.7c6.3,3.7,13.7,4.7,20.7,2.9c7.1-1.8,13-6.3,16.7-12.6
			c3.7-6.3,4.7-13.7,2.9-20.7C535.8,232.2,520.8,223.5,506.2,227.3"/>
		<path clip-path="url(#SVGID_53_)" fill="#015CAB" d="M358.6,546.5c-1.3,0-2.6-0.6-3.4-1.7l-7.4-10.1c-5.9,0.3-11.8-0.3-17.6-1.6
			l-9.1,8.6c-1.3,1.2-3.3,1.5-4.9,0.7l-15.1-7.9c-1.6-0.8-2.5-2.6-2.2-4.4l1.9-12.4c-4.4-4-8.2-8.5-11.3-13.5l-12.5-0.4
			c-1.8-0.1-3.4-1.3-3.9-3l-5.1-16.3c-0.5-1.7,0.1-3.6,1.5-4.7l10.1-7.4c-0.3-5.9,0.3-11.8,1.6-17.6l-8.6-9.1
			c-1.2-1.3-1.5-3.3-0.7-4.9l7.9-15.1c0.8-1.6,2.6-2.5,4.4-2.2l12.4,1.9c4-4.4,8.5-8.2,13.5-11.3l0.4-12.5c0.1-1.8,1.2-3.4,3-3.9
			l16.3-5.1c1.7-0.5,3.6,0.1,4.7,1.5l7.4,10.1c5.9-0.3,11.8,0.3,17.6,1.6l9.1-8.6c1.3-1.2,3.3-1.5,4.9-0.7l15.1,7.9
			c1.6,0.8,2.5,2.6,2.2,4.4l-1.9,12.4c4.4,4,8.2,8.5,11.3,13.5l12.5,0.4c1.8,0.1,3.4,1.2,3.9,3l5.1,16.3c0.5,1.7-0.1,3.6-1.5,4.7
			l-10.1,7.4c0.3,5.9-0.3,11.8-1.6,17.6l8.6,9.1c1.2,1.3,1.5,3.3,0.7,4.9l-7.9,15.1c-0.8,1.6-2.6,2.5-4.4,2.2l-12.4-1.9
			c-4,4.4-8.5,8.2-13.6,11.3l-0.4,12.5c-0.1,1.8-1.2,3.4-3,3.9l-16.3,5.1C359.4,546.4,359,546.5,358.6,546.5 M358,540.4
			C358,540.4,358,540.4,358,540.4L358,540.4z M350.7,528.3l8.6,11.7l13.7-4.3l0.4-14.5l1.5-0.9c5.5-3.2,10.4-7.4,14.6-12.2l1.1-1.3
			L405,509l6.6-12.7l-10-10.6l0.4-1.6c1.6-6.2,2.2-12.6,1.7-19l-0.1-1.7l11.7-8.6l-4.3-13.7l-14.5-0.4l-0.9-1.5
			c-3.2-5.5-7.4-10.4-12.2-14.6l-1.3-1.1l2.2-14.4l-12.7-6.6l-10.6,10l-1.6-0.4c-6.2-1.6-12.6-2.2-19-1.7l-1.7,0.1l-8.6-11.7
			l-13.7,4.3l-0.4,14.5l-1.5,0.9c-5.5,3.2-10.4,7.4-14.6,12.2l-1.1,1.3l-14.4-2.2l-6.6,12.7l10,10.6l-0.4,1.6
			c-1.6,6.2-2.2,12.6-1.7,19l0.1,1.7l-11.7,8.6l4.3,13.7l14.5,0.4l0.9,1.5c3.2,5.5,7.4,10.4,12.2,14.6l1.3,1.1l-2.2,14.4l12.7,6.6
			l10.6-10l1.6,0.4c6.2,1.6,12.6,2.2,19,1.7L350.7,528.3z M319,536.9L319,536.9C319,536.9,319,536.9,319,536.9 M303.9,529L303.9,529
			C303.9,529,303.9,529,303.9,529 M412.5,497.3C412.5,497.3,412.5,497.3,412.5,497.3L412.5,497.3z M410.7,439.9
			C410.7,439.9,410.7,439.9,410.7,439.9L410.7,439.9z M283.2,429.6L283.2,429.6L283.2,429.6z M385.6,409.8
			C385.6,409.8,385.6,409.8,385.6,409.8L385.6,409.8z M316.6,401.7L316.6,401.7L316.6,401.7z M313.5,401.6L313.5,401.6L313.5,401.6z
			 M331.5,398.4L331.5,398.4C331.5,398.4,331.5,398.4,331.5,398.4 M344.6,513.9c-18.8,0-36.3-12.1-42.2-31
			c-7.3-23.2,5.7-48.1,29-55.3c3-0.9,6.1-1.6,9.2-1.8c1.7-0.1,3.2,1.1,3.3,2.8c0.2,1.7-1.1,3.2-2.8,3.3c-2.7,0.2-5.3,0.8-7.9,1.6
			c-20,6.3-31.2,27.6-25,47.6c6.3,20,27.6,31.2,47.6,25c20-6.3,31.2-27.6,25-47.6c-2.1-6.6-5.9-12.5-11-17c-1.3-1.1-1.4-3.1-0.3-4.3
			c1.1-1.3,3.1-1.4,4.3-0.3c5.9,5.3,10.4,12.1,12.7,19.8c7.3,23.2-5.7,48.1-29,55.3C353.4,513.3,349,513.9,344.6,513.9"/>
		<path clip-path="url(#SVGID_53_)" fill="#015CAB" d="M1924,880c0,0-23.6,22.4-31.4,62.1c-7.8,39.8-26.3-56.2-26.3-56.2h-18.7
			c0,0-7.1,98.9,45.8,106.8c10.1,1.5,20.2-2.5,26.5-10.5c9.6-12.3,24.7-34,28.3-54.8C1945,894.7,1924,880,1924,880"/>
		<path clip-path="url(#SVGID_53_)" fill="#015CAB" d="M2043.8,1338c0-0.3,0-0.6-0.1-0.9c-4.4-17.5-22.5-26.5-22.5-26.5l-8.7,0.7
			c-5,15.5-8.2,23-7.4,27.2c0,0.1,0.1,0.2,0.1,0.3C2012.4,1339.5,2027.1,1339.9,2043.8,1338"/>
		<path clip-path="url(#SVGID_53_)" fill="#031C32" d="M2005.2,1338.9c0.4,1.4,1.4,2.5,2.8,2.8c10.2,2.1,26.4,0.4,33.3-0.5
			c1.5-0.2,2.6-1.6,2.6-3.2C2027.1,1339.9,2012.4,1339.5,2005.2,1338.9"/>
	</g>
	<g clip-path="url(#SVGID_2_)">
		<defs>
			<path id="SVGID_54_" d="M2015.8,1297l-2.6,16.3c-0.3,2.1,1,4.1,3,4.4c2.2,0.3,4.4,0.2,5.9,0.1c1.3-0.1,2.3-1.1,2.6-2.5l3.8-18.3
				H2015.8z"/>
		</defs>
		<clipPath id="SVGID_55_">
			<use xlink:href="#SVGID_54_"  overflow="visible"/>
		</clipPath>
		
			<linearGradient id="SVGID_56_" gradientUnits="userSpaceOnUse" x1="-85" y1="1521.0054" x2="-84" y2="1521.0054" gradientTransform="matrix(7.7592 67.7174 -67.7174 7.7592 105675.4141 -4766.4502)">
			<stop  offset="0" style="stop-color:#FF928E"/>
			<stop  offset="1" style="stop-color:#FEB3B1"/>
		</linearGradient>
		<polygon clip-path="url(#SVGID_55_)" fill="url(#SVGID_56_)" points="2010.4,1297.3 2013,1319.8 2030.8,1317.8 2028.2,1295.3 		
			"/>
	</g>
	<g clip-path="url(#SVGID_2_)">
		<defs>
			<rect id="SVGID_57_" x="-85" y="-129" width="2475" height="1650"/>
		</defs>
		<clipPath id="SVGID_58_">
			<use xlink:href="#SVGID_57_"  overflow="visible"/>
		</clipPath>
		<path clip-path="url(#SVGID_58_)" fill="#031C32" d="M1931.2,1338.7c9.3-0.3,14.1-1.4,16.6-2.4c0,0.9,0,1.9,0,2.8
			c0,1-0.8,1.9-1.8,1.9l-51-0.3c-1.6,0-2.6-1.9-1.9-3.4C1899.8,1337.9,1916.9,1339.1,1931.2,1338.7"/>
		<path clip-path="url(#SVGID_58_)" fill="#015CAB" d="M1893.1,1337.3c0.1-0.1,0.1-0.3,0.2-0.4c4.5-6.3,16-18.8,38.7-24.3l10.9-0.3
			c0,0,4.8,8.4,4.9,24c-2.5,1-7.3,2.1-16.6,2.4C1916.9,1339.1,1899.8,1337.9,1893.1,1337.3"/>
	</g>
	<g clip-path="url(#SVGID_2_)">
		<defs>
			<path id="SVGID_59_" d="M1930.8,1312.5c0,1.6,1,2.9,2.4,3.2c2.6,0.5,5.6,0.3,7.5,0.1c1-0.1,1.9-1,2-2.1
				c0.6-4.8,2.1-17.1,2.2-17.9l-14.1-2.6V1312.5z"/>
		</defs>
		<clipPath id="SVGID_60_">
			<use xlink:href="#SVGID_59_"  overflow="visible"/>
		</clipPath>
		
			<linearGradient id="SVGID_61_" gradientUnits="userSpaceOnUse" x1="-85" y1="1521.0009" x2="-84" y2="1521.0009" gradientTransform="matrix(7.2582 63.3447 -63.3447 7.2582 98900.1484 -4367.3872)">
			<stop  offset="0" style="stop-color:#FF928E"/>
			<stop  offset="1" style="stop-color:#FEB3B1"/>
		</linearGradient>
		<polygon clip-path="url(#SVGID_60_)" fill="url(#SVGID_61_)" points="1928.2,1293.5 1931,1317.9 1947.5,1316 1944.7,1291.6 		"/>
	</g>
	<g clip-path="url(#SVGID_2_)">
		<defs>
			<rect id="SVGID_62_" x="-85" y="-129" width="2475" height="1650"/>
		</defs>
		<clipPath id="SVGID_63_">
			<use xlink:href="#SVGID_62_"  overflow="visible"/>
		</clipPath>
		<path clip-path="url(#SVGID_63_)" fill="#031C32" d="M2021.1,1056.1c0,0,17.4,154.8,7.7,251.6c0,0-11.6,0-17.4-1.9
			c0,0-18.1-151.4-24-194.7c-0.2-1.6-2.6-1.7-2.9-0.1c-7.2,36.4-35.6,179.3-39,192.8c0,0-9.7,3.9-17.4,0c0,0,15.5-207,27.1-243.8
			L2021.1,1056.1z"/>
		<path clip-path="url(#SVGID_63_)" fill="#015CAB" d="M2056,876.2c0,0-73.5-11.6-131.6,3.9l3.9,60c0,0,15.5,83.2,27.1,120
			c0,0,44.5,7.7,65.8-3.9c0,0,17.4-104.5,27.1-120C2048.2,936.2,2057.9,895.5,2056,876.2"/>
	</g>
	<g clip-path="url(#SVGID_2_)">
		<defs>
			<path id="SVGID_64_" d="M1980.5,837.5l-3.1,35c14.3,9.8,34.8,0.4,34.8,0.4l-7.8-59.8L1980.5,837.5z"/>
		</defs>
		<clipPath id="SVGID_65_">
			<use xlink:href="#SVGID_64_"  overflow="visible"/>
		</clipPath>
		
			<linearGradient id="SVGID_66_" gradientUnits="userSpaceOnUse" x1="-85" y1="1520.9938" x2="-84" y2="1520.9938" gradientTransform="matrix(-2 89.3335 89.3335 2 -134049.9688 5359.7588)">
			<stop  offset="0" style="stop-color:#FF928E"/>
			<stop  offset="1" style="stop-color:#FEB3B1"/>
		</linearGradient>
		<polygon clip-path="url(#SVGID_65_)" fill="url(#SVGID_66_)" points="2013.7,813.1 2012.2,883 1975.9,882.2 1977.4,812.2 		"/>
	</g>
	<g clip-path="url(#SVGID_2_)">
		<defs>
			<rect id="SVGID_67_" x="-85" y="-129" width="2475" height="1650"/>
		</defs>
		<clipPath id="SVGID_68_">
			<use xlink:href="#SVGID_67_"  overflow="visible"/>
		</clipPath>
		<path clip-path="url(#SVGID_68_)" fill="#015CAB" d="M2056,876.2c0,0,114.2,123.8-20.3,171.2v-9.7c0,0,50.3-42.6,11.6-100.6
			C2047.2,937.1,2052.1,882,2056,876.2"/>
	</g>
	<g clip-path="url(#SVGID_2_)">
		<defs>
			<path id="SVGID_69_" d="M2009.5,1031c-7.7,3.9-7.7,9.7-7.7,9.7s3.9,7.7,9.7,5.8c2.9-1,7.7-0.5,12.6,0c4.8,0.5,9.7,1,12.6,0
				c0,0,1.9-7.7-1.9-7.7c0,0-12.8-8.5-21.3-8.5C2011.9,1030.2,2010.6,1030.4,2009.5,1031"/>
		</defs>
		<clipPath id="SVGID_70_">
			<use xlink:href="#SVGID_69_"  overflow="visible"/>
		</clipPath>
		
			<linearGradient id="SVGID_71_" gradientUnits="userSpaceOnUse" x1="-85" y1="1520.9777" x2="-84" y2="1520.9777" gradientTransform="matrix(61.9203 52.8902 -52.8902 61.9203 87712.9609 -88657.5234)">
			<stop  offset="0" style="stop-color:#FF928E"/>
			<stop  offset="1" style="stop-color:#FEB3B1"/>
		</linearGradient>
		<polygon clip-path="url(#SVGID_70_)" fill="url(#SVGID_71_)" points="1992.8,1040.7 2023,1066.5 2047.5,1037.9 2017.3,1012 		"/>
	</g>
	<g clip-path="url(#SVGID_2_)">
		<defs>
			<rect id="SVGID_72_" x="-85" y="-129" width="2475" height="1650"/>
		</defs>
		<clipPath id="SVGID_73_">
			<use xlink:href="#SVGID_72_"  overflow="visible"/>
		</clipPath>
		<path clip-path="url(#SVGID_73_)" fill="#013A6B" d="M1846.4,823.4l24.6,8.3c3,0.9,5,3.9,5.3,7.7l-1.3,41
			c0.4,6.4-4.9,12.1-9.9,10.6l-19.7-6.7c-1.9-0.6-3.2-2.6-3.2-5.1l-0.4-51C1841.7,825.2,1844.1,822.7,1846.4,823.4"/>
	</g>
	<g clip-path="url(#SVGID_2_)">
		<defs>
			<path id="SVGID_74_" d="M1837.9,847.4c-3.9,4.2,3.8,28.8,3.8,28.8c13.7,14.7,9-25.7,8.4-35c-0.1-2.6-0.8-3.6-1.9-3.6
				C1845.6,837.6,1840.8,844.4,1837.9,847.4"/>
		</defs>
		<clipPath id="SVGID_75_">
			<use xlink:href="#SVGID_74_"  overflow="visible"/>
		</clipPath>
		
			<linearGradient id="SVGID_76_" gradientUnits="userSpaceOnUse" x1="-85" y1="1521.0022" x2="-84" y2="1521.0022" gradientTransform="matrix(2.5579 41.5653 41.5653 -2.5579 -61160.3672 8261.502)">
			<stop  offset="0" style="stop-color:#FF928E"/>
			<stop  offset="1" style="stop-color:#FEB3B1"/>
		</linearGradient>
		<polygon clip-path="url(#SVGID_75_)" fill="url(#SVGID_76_)" points="1855.3,836.3 1858.7,890.7 1834.1,892.2 1830.8,837.8 		"/>
	</g>
	<g clip-path="url(#SVGID_2_)">
		<defs>
			<path id="SVGID_77_" d="M1959.3,802.9c-0.1,0.7,8.6,47.5,8.6,47.5l26.6-5.6l-1.7-45.6c0,0-10.7-2.8-20-2.8
				C1966.1,796.5,1960.1,797.9,1959.3,802.9"/>
		</defs>
		<clipPath id="SVGID_78_">
			<use xlink:href="#SVGID_77_"  overflow="visible"/>
		</clipPath>
		
			<linearGradient id="SVGID_79_" gradientUnits="userSpaceOnUse" x1="-85" y1="1521.0162" x2="-84" y2="1521.0162" gradientTransform="matrix(-90.0003 23.3335 23.3335 90.0003 -41092.7461 -134103.5625)">
			<stop  offset="0" style="stop-color:#FF928E"/>
			<stop  offset="1" style="stop-color:#FEB3B1"/>
		</linearGradient>
		<polygon clip-path="url(#SVGID_78_)" fill="url(#SVGID_79_)" points="2007.7,847 1961.4,859 1946.1,799.9 1992.3,787.9 		"/>
	</g>
	<g clip-path="url(#SVGID_2_)">
		<defs>
			<rect id="SVGID_80_" x="-85" y="-129" width="2475" height="1650"/>
		</defs>
		<clipPath id="SVGID_81_">
			<use xlink:href="#SVGID_80_"  overflow="visible"/>
		</clipPath>
		<path clip-path="url(#SVGID_81_)" fill="#031B30" d="M1984.9,806.7c1,0.6,1.7,1.7,1.9,2.9l2.7,23.6c0,0.4,0,0.7,0,1.1
			c-0.3,2-1.9,8.1-8.2,6.2c-5.4-1.6-10.3-3-14-2.4c-2.1,0.4-3.5,2.5-3.1,4.6c0.8,4.4,2.7,13.2,5.5,20.8c0.7,1.9,2.7,2.9,4.7,2.4
			c5.2-1.4,15.1-4.5,22.8-8.9c1.3-0.7,2-2.1,2-3.5c-0.2-6.3-0.5-24.1,0.1-29.2c0.6-4.7,6.3-7.4,9-8.5c1-0.4,1.8-1.2,2.2-2.2
			c1.2-3.1,2.5-9.4-5.4-12.4c-2-0.7-3-3-2.3-4.9c1.2-3.6,1.6-8.7-4.8-11.7c-6.5-3-11.5,0.1-14.4,2.9c-1.3,1.3-3.3,1.6-4.8,0.7
			c-0.7-0.4-1.5-0.5-2.6,0c-1.9,0.9-4.2,0.3-5.1-1.7c-1.6-3.3-4.9-6.7-11.4-5.7c-11.9,1.8-13.5,15-10.5,22.7c3,7.8,15.8,5,22.3,1.3
			C1976.1,802,1982.1,804.9,1984.9,806.7"/>
	</g>
	<g clip-path="url(#SVGID_2_)">
		<defs>
			<path id="SVGID_82_" d="M2000.5,816c-5.1,3.3-1.7,16.2-1.7,16.2s10.1,4.5,12.4-7.7c1.3-7-2-10-5.9-10
				C2003.7,814.5,2002,815,2000.5,816"/>
		</defs>
		<clipPath id="SVGID_83_">
			<use xlink:href="#SVGID_82_"  overflow="visible"/>
		</clipPath>
		
			<linearGradient id="SVGID_84_" gradientUnits="userSpaceOnUse" x1="-85" y1="1520.9827" x2="-84" y2="1520.9827" gradientTransform="matrix(-35.3231 -50.2616 50.2616 -35.3231 -77411.8047 50327.2852)">
			<stop  offset="0" style="stop-color:#FF928E"/>
			<stop  offset="1" style="stop-color:#FEB3B1"/>
		</linearGradient>
		<polygon clip-path="url(#SVGID_83_)" fill="url(#SVGID_84_)" points="2022.9,829.4 2006.8,806.5 1985,821.9 2001.1,844.8 		"/>
	</g>
	<g clip-path="url(#SVGID_2_)">
		<defs>
			<rect id="SVGID_85_" x="-85" y="-129" width="2475" height="1650"/>
		</defs>
		<clipPath id="SVGID_86_">
			<use xlink:href="#SVGID_85_"  overflow="visible"/>
		</clipPath>
		<path clip-path="url(#SVGID_86_)" fill="#E1EBF4" d="M1787.1,824.7v84.6c0,6.9-4.2,12.5-9.4,12.5h-308.1c-4.3,0-8.1,3.9-9.1,9.5
			l-5.5,29.4c-0.7,3.9-4.8,4.2-5.9,0.5l-7.1-24.9c-1.4-4.8-4.9-8-8.8-8h-13.2c-5.2,0-9.4-5.6-9.4-12.5v-86.9
			c0-6.9,4.2-12.4,9.3-12.5l357.8-4.1C1782.9,812.2,1787.1,817.8,1787.1,824.7"/>
		<path clip-path="url(#SVGID_86_)" fill="#0164BA" d="M1420.5,867.6c0,21.4,16.9,38.8,37.8,38.8c20.9,0,37.8-17.4,37.8-38.8
			c0-21.4-16.9-38.8-37.8-38.8C1437.4,828.8,1420.5,846.1,1420.5,867.6"/>
		<path clip-path="url(#SVGID_86_)" fill="#9ACEFC" d="M1471.9,851.8c0,7-5.6,14.5-12.6,14.5c-7,0-12.6-7.5-12.6-14.5
			c0-7,5.6-11.9,12.6-11.9C1466.3,839.9,1471.9,844.9,1471.9,851.8"/>
		<path clip-path="url(#SVGID_86_)" fill="#9ACEFC" d="M1443.7,893.2h30.8c3.2,0,6.1-2.1,7.1-5.2l1.7-5.2c1.2-3.8-0.8-7.9-4.5-9.3
			c-12.5-4.6-25.5-4-38.8,0.4c-3.7,1.2-5.8,5.2-4.8,9l1.3,4.7C1437.4,890.9,1440.3,893.2,1443.7,893.2"/>
		<path clip-path="url(#SVGID_86_)" fill="#9ACEFC" d="M1757.7,877.7c0,4-3.4,7.3-7.6,7.3h-224.9c-4.2,0-7.6-3.3-7.6-7.3
			s3.4-7.3,7.6-7.3H1750C1754.2,870.4,1757.7,873.6,1757.7,877.7"/>
		<path clip-path="url(#SVGID_86_)" fill="#9ACEFC" d="M1651.2,901.2c0,3.7-3,6.7-6.7,6.7h-117.9c-3.7,0-6.7-3-6.7-6.7
			s3-6.7,6.7-6.7h117.9C1648.2,894.5,1651.2,897.5,1651.2,901.2"/>
		<path clip-path="url(#SVGID_86_)" fill="#9ACEFC" d="M1757.8,901.2c0,3.7-3,6.7-6.7,6.7H1666c-3.7,0-6.7-3-6.7-6.7s3-6.7,6.7-6.7
			h85.1C1754.8,894.5,1757.8,897.5,1757.8,901.2"/>
		<path clip-path="url(#SVGID_86_)" fill="#0163B8" d="M1649.1,842.1c0,5.2-4.2,9.4-9.4,9.4h-113.5c-5.2,0-9.4-4.2-9.4-9.4v-0.8
			c0-5.2,4.2-9.4,9.4-9.4h113.5c5.2,0,9.4,4.2,9.4,9.4V842.1z"/>
		<path clip-path="url(#SVGID_86_)" fill="#011D36" d="M752.7,870.4c-0.1,74.4-0.6,330.8-5.1,421.6c-0.5,9.6-7.2,17.2-15.5,17.3
			c-40.7,0.7-190,1.3-256.4-3.4c-13.8-1-24.6-14.4-24.5-30.6c0.3-78,2.1-297.5,11.6-397.9c1.1-12,9.4-21.4,19.7-22.4
			c44.4-4.2,194.5-13.6,251.9-7.9C744.8,848.1,752.7,858.2,752.7,870.4"/>
		<path clip-path="url(#SVGID_86_)" fill="#015CAB" d="M734,892.8c0.9,60,3.4,259.7-0.5,333.5c-0.6,10.8-8,19.3-17.2,19.8
			c-38,1.8-167.5,4.6-223-1.8c-10-1.2-17.6-10.8-17.9-22.6c-1.5-61.3-5.4-247.3-1.7-320.2c0.6-11.6,8.5-21,18.5-21.8
			c41.1-3.4,178.8-10.6,226-6.5C727,873.9,733.9,882.4,734,892.8"/>
		<path clip-path="url(#SVGID_86_)" fill="#015CAB" d="M636.8,859.1L636.8,859.1c0,2.3-1.6,4.1-3.6,4.2c-9.6,0.4-36.7,1.4-48.8,2
			c-2.4,0.1-4.2-2.4-3.7-5.2l0.1-0.5c0.4-1.9,1.7-3.2,3.3-3.4c8.2-0.7,32.9-2.6,49.3-1.5C635.3,854.9,636.8,856.8,636.8,859.1"/>
		<path clip-path="url(#SVGID_86_)" fill="#CCE7FE" d="M699.3,1060.2c0,52.7-42.7,95.4-95.4,95.4s-95.4-42.7-95.4-95.4
			c0-52.7,42.7-95.4,95.4-95.4S699.3,1007.5,699.3,1060.2"/>
		<path clip-path="url(#SVGID_86_)" fill="#015CAB" d="M662.6,1085.1c-1.4-5.1-5.2-9.2-10.1-11.2l-6.9-2.7
			c-5.5-2.2-11.8-0.4-15.4,4.3l-6.1,8.2c-9.6,0.3-20.7-3.3-30.5-10.7c-9.2-6.9-15.6-15.8-18.3-24.6c0-0.1,0-0.3,0.1-0.3
			c0.1-0.1,0.3-0.1,0.4,0l5.5-7.4c4.1-5.5,4-13-0.3-18.4l-4.6-5.7c-3.3-4.2-8.4-6.6-13.7-6.5c-5.3,0.1-10.3,2.6-13.5,6.9
			c-1.7,2.2-2.9,4.7-3.6,7.4c-5.1,17.9,9.3,44.9,35.9,64.8c26.5,19.9,56.5,26.1,72.3,16.2c2.4-1.5,4.4-3.3,6.1-5.6
			C663,1095.7,664,1090.2,662.6,1085.1"/>
		<path clip-path="url(#SVGID_86_)" fill="#015CAB" d="M490.3,1292.6c-16.1,0-29.3-13.1-29.3-29.1v-49.8c0-0.6,0.4-1.1,1-1.1
			c0.6,0,1,0.5,1,1.1v49.8c0,14.9,12.4,27,27.3,27c0.6,0,1.1,0.5,1.1,1.1C491.4,1292.2,490.9,1292.6,490.3,1292.6"/>
		<path clip-path="url(#SVGID_86_)" fill="#015CAB" d="M330.1,1300.8c0,0-2,11.2-2.9,22.2c-0.4,4.3,3,8.1,7.3,8.3
			c14.7,0.6,46.2,1.8,57.5,1.3c1.7-0.1,2.8-1.8,2.2-3.4c-0.5-1.3-1.5-2.4-2.8-3l-52-23.9L330.1,1300.8z"/>
	</g>
	<g clip-path="url(#SVGID_2_)">
		<defs>
			<path id="SVGID_87_" d="M328.4,1294.3l1.6,13.4c0,0,9.1,4.2,15.3-0.5l-3.8-14.9L328.4,1294.3z"/>
		</defs>
		<clipPath id="SVGID_88_">
			<use xlink:href="#SVGID_87_"  overflow="visible"/>
		</clipPath>
		
			<linearGradient id="SVGID_89_" gradientUnits="userSpaceOnUse" x1="-85" y1="1520.9259" x2="-84" y2="1520.9259" gradientTransform="matrix(16.9258 0 0 -16.9258 1767.1418 27044.9336)">
			<stop  offset="0" style="stop-color:#FF928E"/>
			<stop  offset="1" style="stop-color:#FEB3B1"/>
		</linearGradient>
		<rect x="328.4" y="1292.2" clip-path="url(#SVGID_88_)" fill="url(#SVGID_89_)" width="16.9" height="19.7"/>
	</g>
	<g clip-path="url(#SVGID_2_)">
		<defs>
			<rect id="SVGID_90_" x="-85" y="-129" width="2475" height="1650"/>
		</defs>
		<clipPath id="SVGID_91_">
			<use xlink:href="#SVGID_90_"  overflow="visible"/>
		</clipPath>
		<path clip-path="url(#SVGID_91_)" fill="#031C32" d="M329.6,1043c-0.7,3.5-3.7,174.1,14.6,250.6c0.3,1.2-0.3,2.5-1.5,3
			c-2.8,1.1-8.3,2.8-14.9,3c-2,0.1-3.9-1.3-4.4-3.2c-5.2-17.7-30.2-106.6-33.5-191.6c-3.6-94.9,0-3.2,0-3.2l2.1-58.7L329.6,1043z"/>
		<path clip-path="url(#SVGID_91_)" fill="#015CAB" d="M270.2,1306.7c0,0-3.1,5.6-6.2,20.6c-0.5,2.7,1.3,5.3,4.1,5.6
			c4.9,0.5,12.3,1.1,18.3,1.1c2.8,0,4.9-2.4,4.6-5.2c-0.7-5.5-2.7-14.4-9.1-21.4L270.2,1306.7z"/>
	</g>
	<g clip-path="url(#SVGID_2_)">
		<defs>
			<path id="SVGID_92_" d="M267.4,1289.5l3.7,20.2c0,0,3.7,2.7,10.9,0.8l-1.8-21.7L267.4,1289.5z"/>
		</defs>
		<clipPath id="SVGID_93_">
			<use xlink:href="#SVGID_92_"  overflow="visible"/>
		</clipPath>
		
			<linearGradient id="SVGID_94_" gradientUnits="userSpaceOnUse" x1="-85" y1="1520.9569" x2="-84" y2="1520.9569" gradientTransform="matrix(14.6138 0 0 -14.6138 1509.6213 23527.5137)">
			<stop  offset="0" style="stop-color:#FF928E"/>
			<stop  offset="1" style="stop-color:#FEB3B1"/>
		</linearGradient>
		<rect x="267.4" y="1288.7" clip-path="url(#SVGID_93_)" fill="url(#SVGID_94_)" width="14.6" height="23.7"/>
	</g>
	<g clip-path="url(#SVGID_2_)">
		<defs>
			<rect id="SVGID_95_" x="-85" y="-129" width="2475" height="1650"/>
		</defs>
		<clipPath id="SVGID_96_">
			<use xlink:href="#SVGID_95_"  overflow="visible"/>
		</clipPath>
		<path clip-path="url(#SVGID_96_)" fill="#031C32" d="M257.4,1048.3c-14.9,90,3.2,222.5,9.4,248.5c0.4,1.6,1.7,2.8,3.3,3.1
			c2.7,0.5,7.2,0.8,11.7-0.5c1.5-0.4,2.6-1.8,2.7-3.4c0.8-21-0.7-149.7,13.2-200.5c0.7-2.6,2.3-4.8,4.5-6.4l27-19.2l2.1-31
			L257.4,1048.3z"/>
		<path clip-path="url(#SVGID_96_)" fill="#013A6B" d="M352.5,877.7c-44.7-0.7-94,11.7-94,11.7c-13.3,77.8-2.3,167.5-2.3,167.5
			c34.6,9.1,73.7-5.5,73.7-5.5c5.8-32.5,32.6-124,32.6-124c21.8-2.7,39.8-9,54.7-17.3c-11.3-13.1-16.6-29.8-18.9-39.6
			C382.3,875.3,366.3,877.9,352.5,877.7"/>
	</g>
	<g clip-path="url(#SVGID_2_)">
		<defs>
			<path id="SVGID_97_" d="M474.6,809c-6.6,27.8-41.1,50.3-76.5,61.3c2.3,9.9,7.6,26.5,18.9,39.6c58.8-33.1,67.5-98.2,67.5-98.2
				c-2.3-2.7-4.8-3.4-6.8-3.4C475.9,808.4,474.6,809,474.6,809"/>
		</defs>
		<clipPath id="SVGID_98_">
			<use xlink:href="#SVGID_97_"  overflow="visible"/>
		</clipPath>
		
			<linearGradient id="SVGID_99_" gradientUnits="userSpaceOnUse" x1="-85" y1="1521" x2="-84" y2="1521" gradientTransform="matrix(86.4708 0 0 -86.4708 7748.1167 132381.3125)">
			<stop  offset="0" style="stop-color:#FF928E"/>
			<stop  offset="1" style="stop-color:#FEB3B1"/>
		</linearGradient>
		<rect x="398.1" y="808.4" clip-path="url(#SVGID_98_)" fill="url(#SVGID_99_)" width="86.5" height="101.6"/>
	</g>
	<g clip-path="url(#SVGID_2_)">
		<defs>
			<path id="SVGID_100_" d="M475.4,793.4c-1.7,2.3,0,14.6,0.1,17.5c3.1,6,8.5,3.8,8,2.3c0,0,5.2,0,8.9-5.3c1.9-2.8,4-6.3,5.5-9
				c1.5-2.7,2-5.9,1.2-8.8c-1-3.9-3.2-6.7-5-9.9l8.6-8.9c0,0,2.5-2.9-0.5-5.8C502.2,765.4,484.5,781,475.4,793.4"/>
		</defs>
		<clipPath id="SVGID_101_">
			<use xlink:href="#SVGID_100_"  overflow="visible"/>
		</clipPath>
		
			<linearGradient id="SVGID_102_" gradientUnits="userSpaceOnUse" x1="-85" y1="1520.9966" x2="-84" y2="1520.9966" gradientTransform="matrix(-58.0245 132.0187 -132.0187 -58.0245 196333.7344 100321.5313)">
			<stop  offset="0" style="stop-color:#FF928E"/>
			<stop  offset="1" style="stop-color:#FEB3B1"/>
		</linearGradient>
		<polygon clip-path="url(#SVGID_101_)" fill="url(#SVGID_102_)" points="478.8,753.8 454.7,808.5 500,828.5 524.1,773.7 		"/>
	</g>
	<g clip-path="url(#SVGID_2_)">
		<defs>
			<path id="SVGID_103_" d="M482.5,792.6l-2.5,6.6l7,7.7c0,0,2.3-13.1,4.1-15.9c1.7-2.8,0.8-4.2-0.8-5L482.5,792.6z"/>
		</defs>
		<clipPath id="SVGID_104_">
			<use xlink:href="#SVGID_103_"  overflow="visible"/>
		</clipPath>
		
			<linearGradient id="SVGID_105_" gradientUnits="userSpaceOnUse" x1="-85" y1="1521.0048" x2="-84" y2="1521.0048" gradientTransform="matrix(125.9998 -143.9999 -143.9999 -125.9998 230144.5 180290.1094)">
			<stop  offset="0" style="stop-color:#FF928E"/>
			<stop  offset="1" style="stop-color:#FEB3B1"/>
		</linearGradient>
		<polygon clip-path="url(#SVGID_104_)" fill="url(#SVGID_105_)" points="469.7,797.8 485.6,779.6 503.3,795.1 487.3,813.3 		"/>
	</g>
	<g clip-path="url(#SVGID_2_)">
		<defs>
			<rect id="SVGID_106_" x="-85" y="-129" width="2475" height="1650"/>
		</defs>
		<clipPath id="SVGID_107_">
			<use xlink:href="#SVGID_106_"  overflow="visible"/>
		</clipPath>
		<path clip-path="url(#SVGID_107_)" fill="#013A6B" d="M275.6,932.7l-17.1-43.3c0,0-41.8,28.4-48.6,64.4c7.9,0.6,21.1,2.8,35.2,9.9
			C251.4,949.4,275.6,932.7,275.6,932.7"/>
	</g>
	<g clip-path="url(#SVGID_2_)">
		<defs>
			<path id="SVGID_108_" d="M307.2,841.4L293,882.5c-0.2,0.7,0,1.4,0.7,1.8c3.9,2.1,17.8,8.3,34.7-2.3c1.8-1.1,2.9-2.9,3.2-5
				l4.6-35.6H307.2z"/>
		</defs>
		<clipPath id="SVGID_109_">
			<use xlink:href="#SVGID_108_"  overflow="visible"/>
		</clipPath>
		
			<linearGradient id="SVGID_110_" gradientUnits="userSpaceOnUse" x1="-85" y1="1521.0037" x2="-84" y2="1521.0037" gradientTransform="matrix(-17.9999 135.9999 135.9999 17.9999 -208071.2656 -14955.6367)">
			<stop  offset="0" style="stop-color:#FF928E"/>
			<stop  offset="1" style="stop-color:#FEB3B1"/>
		</linearGradient>
		<polygon clip-path="url(#SVGID_109_)" fill="url(#SVGID_110_)" points="342.8,842.3 335.4,898.3 286.1,891.8 293.5,835.7 		"/>
	</g>
	<g clip-path="url(#SVGID_2_)">
		<defs>
			<path id="SVGID_111_" d="M301.7,814.2l11.8,31.8c16.9,9.6,36.3,10.5,38.3-1.4c2-11.9-13.6-41.3-13.6-41.3L301.7,814.2z"/>
		</defs>
		<clipPath id="SVGID_112_">
			<use xlink:href="#SVGID_111_"  overflow="visible"/>
		</clipPath>
		
			<linearGradient id="SVGID_113_" gradientUnits="userSpaceOnUse" x1="-85" y1="1521.0303" x2="-84" y2="1521.0303" gradientTransform="matrix(-118.6749 -42.852 -42.852 118.6749 58589.1602 -182176.125)">
			<stop  offset="0" style="stop-color:#FF928E"/>
			<stop  offset="1" style="stop-color:#FEB3B1"/>
		</linearGradient>
		<polygon clip-path="url(#SVGID_112_)" fill="url(#SVGID_113_)" points="347.8,873.1 284.7,850.3 307.7,786.6 370.8,809.4 		"/>
	</g>
	<g clip-path="url(#SVGID_2_)">
		<defs>
			<rect id="SVGID_114_" x="-85" y="-129" width="2475" height="1650"/>
		</defs>
		<clipPath id="SVGID_115_">
			<use xlink:href="#SVGID_114_"  overflow="visible"/>
		</clipPath>
		<path clip-path="url(#SVGID_115_)" fill="#031B30" d="M314.3,830.4c0.7-0.3,0.9-1.1,0.5-1.8c-1.3-1.9-3.6-5.8-4.3-9.2
			c0,0-2.8-1.8,7.1-4.2c10-2.4,24.8-6.1,27.9-14.6c3-8.3-5-29-17.7-12.5c-0.5,0.6-1.4,0.6-1.9,0c-2.1-2.7-7.6-8.4-15.2-4.9
			c-7.1,3.2-7.9,8.4-7.8,11.1c0,0.8-0.7,1.4-1.4,1.2c-3.6-0.7-12.3-1.3-16.3,7.6c-3.3,7.3-1.2,11.5,0.8,13.5c0.6,0.7,0.4,1.7-0.5,2
			c-2.4,0.7-5.4,2.7-5.1,8.3c0.4,7.7,9,7,11.5,6.7c0.4-0.1,0.8,0.1,1.1,0.4c2.1,2.3,11.6,12.2,21.8,13.4c0.9,0.1,1.6-0.8,1.3-1.6
			l-4.4-12.9c-0.2-0.6,0.1-1.3,0.7-1.5L314.3,830.4z"/>
	</g>
	<g clip-path="url(#SVGID_2_)">
		<defs>
			<path id="SVGID_116_" d="M304.1,831c-0.8,6.4,10,9.3,15.4,6.9l-3.4-5.7c0,0-5.5-3.8-9.1-3.8C305.5,828.4,304.4,829.1,304.1,831"
				/>
		</defs>
		<clipPath id="SVGID_117_">
			<use xlink:href="#SVGID_116_"  overflow="visible"/>
		</clipPath>
		
			<linearGradient id="SVGID_118_" gradientUnits="userSpaceOnUse" x1="-85" y1="1521.0027" x2="-84" y2="1521.0027" gradientTransform="matrix(-118.6748 -42.852 -42.852 118.6748 58584.6367 -182163.5938)">
			<stop  offset="0" style="stop-color:#FF928E"/>
			<stop  offset="1" style="stop-color:#FEB3B1"/>
		</linearGradient>
		<polygon clip-path="url(#SVGID_117_)" fill="url(#SVGID_118_)" points="317.6,845.5 299.5,838.9 305.2,823.2 323.3,829.8 		"/>
	</g>
	<g clip-path="url(#SVGID_2_)">
		<defs>
			<path id="SVGID_119_" d="M210.1,954.1c0,0-28.5,65,41.2,74.5l9.5-7.9c0,0-34.9-19-15.9-57.1c0,0-13.7-11.6-26.5-11.6
				C215.6,952,212.8,952.6,210.1,954.1"/>
		</defs>
		<clipPath id="SVGID_120_">
			<use xlink:href="#SVGID_119_"  overflow="visible"/>
		</clipPath>
		
			<linearGradient id="SVGID_121_" gradientUnits="userSpaceOnUse" x1="-85" y1="1521.0619" x2="-84" y2="1521.0619" gradientTransform="matrix(-89.0766 -71.2612 -71.2612 89.0766 101115.0469 -140499.7969)">
			<stop  offset="0" style="stop-color:#FF928E"/>
			<stop  offset="1" style="stop-color:#FEB3B1"/>
		</linearGradient>
		<polygon clip-path="url(#SVGID_120_)" fill="url(#SVGID_121_)" points="229.9,1067.3 144.2,998.8 212.5,913.4 298.2,981.9 		"/>
	</g>
	<g clip-path="url(#SVGID_2_)">
		<defs>
			<rect id="SVGID_122_" x="-85" y="-129" width="2475" height="1650"/>
		</defs>
		<clipPath id="SVGID_123_">
			<use xlink:href="#SVGID_122_"  overflow="visible"/>
		</clipPath>
		<path clip-path="url(#SVGID_123_)" fill="#013A6B" d="M260.2,988.3l24.6,8.3c3,0.9,5,3.9,5.3,7.7l-1.3,41
			c0.4,6.4-4.9,12.1-9.9,10.6l-19.7-6.7c-1.9-0.6-3.2-2.6-3.2-5.1l-0.4-51C255.5,990.1,258,987.7,260.2,988.3"/>
	</g>
	<g clip-path="url(#SVGID_2_)">
		<defs>
			<path id="SVGID_124_" d="M249.8,1016.6c-1.2,11.2,3.4,19.6,4.1,20.4c10.2,11.3,8.5-23.9,9.1-29.4c0.6-5.5-3.7-6.4-9-6.8
				c-0.2,0-0.4,0-0.6,0C249,1000.7,250.9,1005.8,249.8,1016.6"/>
		</defs>
		<clipPath id="SVGID_125_">
			<use xlink:href="#SVGID_124_"  overflow="visible"/>
		</clipPath>
		
			<linearGradient id="SVGID_126_" gradientUnits="userSpaceOnUse" x1="-85" y1="1521.2095" x2="-84" y2="1521.2095" gradientTransform="matrix(-16.509 12.3274 12.3274 16.509 -19886.3281 -23051.1738)">
			<stop  offset="0" style="stop-color:#FF928E"/>
			<stop  offset="1" style="stop-color:#FEB3B1"/>
		</linearGradient>
		<polygon clip-path="url(#SVGID_125_)" fill="url(#SVGID_126_)" points="286.9,1031.2 254.2,1055.6 225.8,1017.7 258.5,993.3 		"/>
	</g>
</g>
</svg>
